<svg xmlns="http://www.w3.org/2000/svg" xmlns:xlink="http://www.w3.org/1999/xlink" width="1417.32" height="455.982" viewBox="0 0 1417.32 455.982"><path fill="#004F9F" d="M132.483 289.618h16.974v96.674h-16.974z"/><defs><path id="a" d="M0 0h1417.322v455.982h-1417.322z"/></defs><clipPath id="b"><use xlink:href="#a" overflow="visible"/></clipPath><path clip-path="url(#b)" fill="#004F9F" d="M260.447 289.618h-18.102v71.841c0 5.61-2.384 8.417-7.155 8.417-1.594 0-2.81-.488-3.649-1.475-.84-.982-1.591-2.452-2.248-4.419l-19.501-59.634c-1.591-4.768-4.347-8.464-8.282-11.081-3.927-2.62-8.372-3.932-13.328-3.932-3.555 0-6.855.56-9.891 1.684-3.037 1.124-5.68 2.715-7.928 4.77-2.248 2.062-3.999 4.56-5.263 7.507-1.263 2.949-1.893 6.198-1.893 9.753v73.243h18.098v-71.556c0-5.614 2.387-8.421 7.161-8.421 1.591 0 2.825.537 3.715 1.61.891 1.075 1.614 2.598 2.176 4.561l19.366 59.493c1.584 4.772 4.35 8.492 8.277 11.156 3.928 2.665 8.417 4.001 13.468 4.001 3.46 0 6.712-.563 9.752-1.684 3.037-1.124 5.683-2.736 7.928-4.843 2.244-2.106 4.022-4.604 5.332-7.507 1.31-2.898 1.967-6.172 1.967-9.826v-73.658zM371.429 289.618h-18.099v71.841c0 5.61-2.383 8.417-7.157 8.417-1.591 0-2.807-.488-3.646-1.475-.843-.982-1.596-2.452-2.245-4.419l-19.504-59.634c-1.592-4.768-4.351-8.464-8.282-11.081-3.927-2.62-8.372-3.932-13.325-3.932-3.562 0-6.854.56-9.894 1.684s-5.683 2.715-7.928 4.77c-2.244 2.062-3.996 4.56-5.263 7.507-1.262 2.949-1.894 6.198-1.894 9.753v73.243h18.099v-71.556c0-5.614 2.384-8.421 7.157-8.421 1.592 0 2.833.537 3.72 1.61.89 1.075 1.616 2.598 2.175 4.561l19.362 59.493c1.591 4.772 4.351 8.492 8.277 11.156 3.931 2.665 8.417 4.001 13.471 4.001 3.461 0 6.713-.563 9.749-1.684 3.041-1.124 5.686-2.736 7.928-4.843 2.248-2.106 4.029-4.604 5.335-7.507 1.307-2.898 1.964-6.172 1.964-9.826v-73.658zM428.045 289.618c-29.322 0-44.036 15.993-44.127 47.986v.424c0 32.177 14.659 48.264 43.984 48.264h7.587c29.323 0 43.981-16.087 43.981-48.264v-.424c-.281-31.993-14.986-47.986-44.126-47.986h-7.299zm11.628 16.978c7.562 0 13.256 2.521 17.081 7.559 3.828 5.04 5.737 13.021 5.737 23.942 0 20.814-7.555 31.217-22.672 31.217h-16.245c-15.118 0-22.676-10.402-22.676-31.217 0-10.921 1.889-18.902 5.668-23.942 3.777-5.037 9.497-7.559 17.146-7.559h15.961zM526.475 369.737c-.751 0-1.401-.19-1.96-.562-.565-.372-.985-1.073-1.263-2.103l-27.227-77.455h-17.96l30.03 85.028c1.405 4.025 3.762 7.062 7.084 9.121 3.322 2.059 7.226 3.088 11.716 3.088 4.489 0 8.373-.986 11.65-2.949 3.27-1.964 5.657-5.052 7.154-9.26l30.027-85.028h-17.962l-27.22 77.31c-.47 1.124-.981 1.876-1.543 2.248-.559.371-1.172.562-1.821.562h-.705zM632.694 372.402l5.052 13.89h17.96l-30.027-84.328c-1.496-4.212-3.883-7.343-7.156-9.4-3.275-2.055-7.158-3.084-11.647-3.084s-8.373 1.029-11.643 3.084c-3.277 2.058-5.664 5.188-7.161 9.4l-30.03 84.328h17.964l4.913-13.89h51.775zm-25.537-65.949c.654 0 1.263.209 1.822.632.561.425 1.072 1.193 1.547 2.317l16.274 46.021h-40.129l16.559-46.162c.741-1.872 1.821-2.808 3.222-2.808h.705zM688.397 306.596h22.45v-16.978h-63.279v16.978h23.851v79.696h16.978zM721.515 289.618h16.973v96.674h-16.973zM795.099 289.618c-29.323 0-44.035 15.993-44.123 47.986v.424c0 32.177 14.657 48.264 43.98 48.264h7.591c29.322 0 43.984-16.087 43.984-48.264v-.424c-.281-31.993-14.99-47.986-44.126-47.986h-7.306zm11.635 16.978c7.554 0 13.247 2.521 17.076 7.559 3.825 5.04 5.741 13.021 5.741 23.942 0 20.814-7.559 31.217-22.68 31.217h-16.241c-15.121 0-22.676-10.402-22.676-31.217 0-10.921 1.887-18.902 5.672-23.942 3.772-5.037 9.489-7.559 17.143-7.559h15.965zM956.115 289.618h-18.1v71.841c0 5.61-2.387 8.417-7.156 8.417-1.593 0-2.808-.488-3.65-1.475-.84-.982-1.592-2.452-2.245-4.419l-19.504-59.634c-1.591-4.768-4.347-8.464-8.278-11.081-3.927-2.62-8.372-3.932-13.329-3.932-3.555 0-6.854.56-9.89 1.684-3.045 1.124-5.684 2.715-7.935 4.77-2.241 2.062-3.993 4.56-5.257 7.507-1.263 2.949-1.894 6.198-1.894 9.753v73.243h18.099v-71.556c0-5.614 2.388-8.421 7.158-8.421 1.587 0 2.829.537 3.718 1.61.888 1.075 1.614 2.598 2.173 4.561l19.365 59.493c1.587 4.772 4.351 8.492 8.278 11.156 3.927 2.665 8.42 4.001 13.471 4.001 3.46 0 6.708-.563 9.752-1.684 3.036-1.124 5.683-2.736 7.929-4.843 2.239-2.106 4.018-4.604 5.332-7.507 1.306-2.898 1.963-6.172 1.963-9.826v-73.658zM1074.112 386.292h16.979v-96.678h-16.979v39.574h-44.899v-39.574h-16.979v96.678h16.979v-40.126h44.899zM1186.222 289.618h-16.979v59.666c0 5.883-1.919 10.693-5.752 14.431-3.841 3.738-9.544 5.6-17.12 5.6h-.421c-7.576 0-13.493-1.861-17.748-5.6-4.261-3.737-6.384-8.548-6.384-14.431v-59.666h-16.979v60.191c0 5.336.887 10.245 2.667 14.729 1.774 4.498 4.396 8.352 7.854 11.582 3.461 3.227 7.72 5.73 12.771 7.504 5.052 1.777 10.896 2.667 17.538 2.667 6.734 0 12.648-.89 17.748-2.667 5.099-1.773 9.337-4.252 12.701-7.436 3.365-3.178 5.891-7.014 7.577-11.504 1.683-4.488 2.525-9.496 2.525-15.015v-60.051zM1200.113 289.618v96.674h48.352c5.621 0 10.355-.816 14.197-2.459 3.841-1.632 6.979-3.782 9.417-6.449 2.438-2.665 4.193-5.727 5.271-9.193 1.081-3.457 1.62-6.964 1.62-10.521 0-3.926-.85-7.696-2.548-11.295-1.697-3.603-4.438-6.524-8.207-8.771 3.77-2.248 6.51-5.19 8.207-8.839 1.698-3.65 2.548-7.205 2.548-10.665 0-4.022-.539-7.768-1.62-11.228-1.077-3.459-2.833-6.474-5.271-9.051-2.438-2.569-5.599-4.576-9.489-6.03-3.887-1.452-8.595-2.174-14.125-2.174h-48.352zm16.979 56.542h33.954c1.497 0 2.897.306 4.208.912 1.311.605 2.456 1.416 3.438 2.438.981 1.026 1.774 2.213 2.388 3.56.604 1.347.913 2.766.913 4.251 0 3.347-.982 6.187-2.949 8.509-1.964 2.324-4.676 3.485-8.136 3.485h-33.815v-23.155zm0-39.564h33.954c1.497 0 2.897.307 4.208.912s2.456 1.424 3.438 2.452c.981 1.033 1.774 2.228 2.388 3.577.604 1.361.913 2.789.913 4.278 0 3.182-1.029 5.876-3.088 8.073-2.059 2.196-4.724 3.292-7.997 3.292h-33.815v-22.584zM33.81 194.533v-167.83c0-16.877 14.41-26.797 42.094-26.702l30.953.062v13.453l-6.073-.022c-27.089-.092-32.625 5.076-32.625 26.775v152.107c0 17.743-15.537 31.177-36.553 32.888 21.016 1.741 36.553 15.158 36.553 32.912v157.578c0 21.68 5 26.833 32.625 26.754l6.073-.02v13.402l-30.953.091c-27.684.121-42.094-9.803-42.094-26.73v-173.206c0-13.875-7.795-23.4-21.073-28.149-4.406-1.755-8.277-2.186-12.737-2.632 19.942-.839 33.81-12.978 33.81-30.731M1383.514 256.086v170.511c0 16.901-14.409 26.817-42.096 26.727l-30.893-.091v-13.42l6.016.018c27.143.069 32.683-5.099 32.683-26.76v-154.864c0-17.73 15.468-31.161 36.546-32.892-21.078-1.748-36.546-15.168-36.546-32.921v-152.125c0-21.654-5.004-26.852-32.683-26.735l-6.016.022v-13.416l30.893-.125c27.687-.073 42.096 9.851 42.096 26.739v167.783c0 13.869 7.796 23.417 21.07 28.194 4.464 1.731 8.273 2.165 12.738 2.584-19.943.866-33.808 13.018-33.808 30.771"/><path clip-path="url(#b)" fill="#004F9F" d="M185.257 237.877c-16.485 0-29.697-6.102-39.471-18.037-8.807-11.109-13.212-24.523-13.212-40.6 0-6.73.897-13.431 2.62-19.855 2.088-6.431 4.701-12.292 8.57-17.5-3.57-5.271-6.482-11.136-8.209-17.837-2.084-6.453-2.981-13.183-2.981-19.847 0-15.771 4.405-29.199 13.212-40.338 9.774-12.234 22.986-18.329 39.471-18.3l110.674.146v40.776l-103.582-.051c-4.763 0-8.277 1.723-11.197 5.204-2.62 3.515-3.865 7.621-3.865 12.264 0 4.7 1.245 8.752 3.865 11.967 2.621 3.508 6.434 4.972 11.197 4.972h103.582v41.697l-109.479.03c-2.979 1.463-5.3 3.548-6.789 6.73-1.723 2.883-2.376 6.161-2.376 9.942 0 4.672 1.245 8.722 3.865 11.934 2.621 3.216 6.434 4.972 11.197 4.972l103.582-.117v41.695l-110.674.153zM384.094 162.539c-10.537 0-18.158 3.449-22.504 10.749-3.271 4.672-4.76 10.745-4.76 18.037v4.077c.358.891.358 1.727.595 2.351v41.016l-42.45.062v-64.079c0-15.117 3.814-27.654 11.734-37.242 8.807-11.107 21.903-16.614 38.99-16.614h52.571c4.935 0 8.749-1.752 11.369-5.202 2.617-3.185 3.807-6.966 3.807-11.674 0-4.615-1.19-8.687-3.807-11.87-2.62-3.788-6.434-5.541-11.369-5.541l-103.295-.123v-40.742l110.613.142c16.311.032 29.169 6.139 38.758 18.099 8.809 11.018 13.153 24.41 13.153 40.4 0 15.679-4.344 29.022-12.855 40.092-9.646 11.91-22.745 18.041-39.056 18.041l-41.494.021zM494.405 238.593v-192.612l42.803.087v192.437zM634.241 86.814v151.538l-42.143.059v-151.655l-43.279-.029v-40.622l128.885.139v40.604zM742.779 237.039c-16.137.037-29.118-6.029-38.704-17.884-8.693-10.982-13.037-24.315-13.037-40.206 0-6.701.895-13.34 2.618-19.709 2.025-6.368 4.646-12.176 8.398-17.387-3.511-5.242-6.373-11.008-8.161-17.625-1.96-6.424-2.855-13.066-2.855-19.727 0-15.632 4.344-28.965 13.037-39.979 9.585-12.114 22.567-18.18 38.704-18.18l108.876.175v40.45l-101.854-.058c-4.643-.029-8.037 1.694-11.018 5.147-2.618 3.514-3.808 7.533-3.808 12.175 0 4.613 1.189 8.657 3.808 11.88 2.564 3.453 6.375 4.873 11.018 4.873l101.854.036v41.376999999999995h-107.69c-2.858 1.457-5.182 3.457-6.61 6.665-1.723 2.916-2.379 6.044-2.379 9.825 0 4.609 1.189 8.719 3.808 11.844 2.564 3.214 6.375 4.97 11.018 4.938l101.854-.084v41.307l-108.877.147zM936.549 237.908c-22.387.062-40.009-9.76-52.922-29.32-11.788-17.65-17.504-38.997-17.504-64.713 0-26.279 5.716-48.542 17.796-67.003 12.979-20.175 30.541-30.271 52.63-30.239l92.98.147v40.337l-86.075-.091c-10.358 0-18.396 5.51-24.169 16.46-5.419 10.088-8.044 22.21-8.044 36.914 0 14.993 2.625 27.709 8.044 38.425 6.069 11.789 14.103 17.566 24.169 17.566l86.075-.098v41.498l-92.98.117zM1164.55 237.579v-75.339h-75.726v75.456l-42.082.029v-190.912l42.082.059v74.235l75.726.063v-74.183l41.972.037v190.496zM1261.115 187.963c13.687 0 24.169 9.856 24.169 23.06 0 13.877-10.482 25.782-23.512 25.782-12.445.032-22.33-11.847-22.33-25.056 0-13.219 9.169-23.786 21.673-23.786"/></svg>