<svg xmlns="http://www.w3.org/2000/svg" xmlns:xlink="http://www.w3.org/1999/xlink" width="808.824" height="350.267" viewBox="0 0 808.824 350.267"><defs><path id="a" d="M0 0h808.824v350.267h-808.824z"/></defs><clipPath id="b"><use xlink:href="#a" overflow="visible"/></clipPath><path clip-path="url(#b)" fill="#00B1EB" d="M25.976 149.437v-128.923c0-12.962 11.067-20.584 32.332-20.514l23.778.053v10.332l-4.665-.019c-20.808-.072-25.063 3.901-25.063 20.572v116.838c0 13.631-11.933 23.949-28.076 25.264 16.143 1.335 28.076 11.647 28.076 25.281v121.043c0 16.654 3.841 20.609 25.063 20.553l4.665-.021v10.3l-23.778.07c-21.265.094-32.332-7.529-32.332-20.531v-133.051c0-10.655-5.992-17.973-16.19-21.624-3.384-1.348-6.358-1.679-9.786-2.02 15.319-.643 25.976-9.968 25.976-23.603M782.854 197.727v130.979c0 12.983-11.067 20.601-32.336 20.534l-23.729-.077v-10.31l4.621.021c20.85.052 25.105-3.918 25.105-20.56v-118.962c0-13.614 11.881-23.931 28.072-25.263-16.191-1.34-28.072-11.65-28.072-25.287v-116.853c0-16.636-3.844-20.63-25.105-20.537l-4.621.017v-10.312l23.729-.09c21.269-.056 32.336 7.566 32.336 20.537v128.883c0 10.652 5.988 17.99 16.186 21.656 3.429 1.334 6.355 1.661 9.785 1.986-15.32.666-25.971 10.002-25.971 23.638"/><path clip-path="url(#b)" fill="#00B1EB" d="M379.451 115.938l-77.54-99.17 27.072-11.459 109.436 86.66 77.779-31.37s18.765-6.445 23.922 4.011c5.156 10.456-13.896 19.481-13.896 19.481l-77.636 31.8-17.476 138.513-27.501 11.315-14.038-125.765-60.448 24.924-7.018 33.088-23.062 9.454 1.289-44.548-32.516-31.226 23.062-9.598 28.505 18.908 60.066-25.018zM231.38 296.132h27.682v6.221h-20.692v14.89h19.993v6.256h-19.993v15.169h21.353v6.221h-28.343zM304.568 296.132h6.535v48.827h-7.025v-37.994l-15.011 18.874h-1.294l-15.186-18.874v37.994h-6.99v-48.827h6.618l16.225 20.052zM336.798 344.959h-16.533v-48.827h12.792c4.03 0 7.177.541 9.438 1.626 2.26 1.082 3.982 2.573 5.172 4.472 1.189 1.899 1.783 4.096 1.783 6.589 0 4.8-2.482 8.238-7.445 10.312 3.564.675 6.401 2.143 8.511 4.403 2.108 2.26 3.163 4.963 3.163 8.109 0 2.493-.642 4.716-1.923 6.674-1.283 1.958-3.163 3.555-5.645 4.789-2.481 1.234-5.587 1.853-9.313 1.853m-3.53-42.606h-6.012v14.681h4.649c3.726 0 6.377-.71 7.949-2.133 1.575-1.422 2.36-3.262 2.36-5.521 0-4.686-2.981-7.027-8.946-7.027m.523 20.901h-6.535v15.482h6.885c3.822 0 6.412-.297 7.775-.892 1.363-.594 2.459-1.521 3.286-2.777.828-1.258 1.241-2.61 1.241-4.055 0-1.491-.437-2.854-1.31-4.089-.873-1.235-2.116-2.156-3.723-2.762-1.607-.604-4.146-.907-7.619-.907"/><path clip-path="url(#b)" fill="#00B1EB" d="M359.202 296.132h27.682v6.221h-20.692v14.89h19.993v6.256h-19.993v15.169h21.356v6.221h-28.346zM393.633 344.889v-48.757h16.461c6.643 0 11.895.996 15.764 2.989 3.868 1.992 6.942 4.922 9.228 8.79 2.281 3.866 3.425 8.085 3.425 12.651 0 3.263-.629 6.386-1.888 9.366-1.259 2.983-3.053 5.605-5.383 7.866-2.376 2.33-5.138 4.087-8.281 5.276-1.843.723-3.533 1.204-5.071 1.45-1.537.244-4.472.367-8.806.367h-15.449zm15.727-42.536h-8.737v36.315h8.946c3.494 0 6.211-.239 8.145-.718 1.933-.478 3.548-1.082 4.839-1.816 1.294-.734 2.478-1.636 3.549-2.71 3.447-3.495 5.171-7.909 5.171-13.247 0-5.241-1.77-9.518-5.31-12.826-1.308-1.234-2.802-2.25-4.492-3.04-1.689-.793-3.292-1.317-4.805-1.575-1.517-.254-3.95-.383-7.306-.383M445.886 344.889v-48.757h16.458c6.643 0 11.897.996 15.764 2.989 3.867 1.992 6.942 4.922 9.229 8.79 2.282 3.866 3.423 8.085 3.423 12.651 0 3.263-.627 6.386-1.886 9.366-1.258 2.983-3.053 5.605-5.383 7.866-2.378 2.33-5.138 4.087-8.281 5.276-1.843.723-3.53 1.204-5.073 1.45-1.537.244-4.472.367-8.805.367h-15.446zm15.724-42.536h-8.734v36.315h8.948c3.492 0 6.208-.239 8.142-.718 1.934-.478 3.546-1.082 4.842-1.816 1.291-.734 2.476-1.636 3.546-2.71 3.45-3.495 5.176-7.909 5.176-13.247 0-5.241-1.773-9.518-5.314-12.826-1.307-1.234-2.801-2.25-4.494-3.04-1.687-.793-3.289-1.317-4.805-1.575-1.518-.254-3.949-.383-7.307-.383"/><path clip-path="url(#b)" fill="#00B1EB" d="M498.141 296.132h27.68v6.221h-20.689v14.89h19.99v6.256h-19.99v15.169h21.352v6.221h-28.343zM532.568 344.889v-48.757h16.459c6.643 0 11.897.996 15.765 2.989 3.867 1.992 6.941 4.922 9.227 8.79 2.284 3.866 3.425 8.085 3.425 12.651 0 3.263-.629 6.386-1.888 9.366-1.256 2.983-3.053 5.605-5.38 7.866-2.379 2.33-5.14 4.087-8.284 5.276-1.843.723-3.529 1.204-5.069 1.45-1.538.244-4.474.367-8.807.367h-15.448zm15.726-42.536h-8.736v36.315h8.948c3.495 0 6.208-.239 8.142-.718 1.934-.478 3.549-1.082 4.843-1.816s2.475-1.636 3.546-2.71c3.45-3.495 5.174-7.909 5.174-13.247 0-5.241-1.773-9.518-5.313-12.826-1.305-1.234-2.802-2.25-4.491-3.04-1.69-.793-3.291-1.317-4.806-1.575-1.516-.254-3.952-.383-7.307-.383"/></svg>