<svg xmlns="http://www.w3.org/2000/svg" xmlns:xlink="http://www.w3.org/1999/xlink" width="808.824" height="350.268" viewBox="0 0 808.824 350.268"><defs><path id="a" d="M0 0h808.824v350.268h-808.824z"/></defs><clipPath id="b"><use xlink:href="#a" overflow="visible"/></clipPath><path clip-path="url(#b)" fill="#E72887" d="M25.976 149.436v-128.922c0-12.961 11.067-20.584 32.332-20.514l23.778.053v10.333l-4.665-.02c-20.808-.071-25.063 3.902-25.063 20.573v116.837c0 13.631-11.933 23.95-28.076 25.265 16.143 1.334 28.076 11.646 28.076 25.281v121.041c0 16.655 3.841 20.611 25.063 20.554l4.665-.021v10.299l-23.778.072c-21.265.092-32.332-7.531-32.332-20.532v-133.051c0-10.656-5.992-17.973-16.19-21.623-3.384-1.349-6.358-1.68-9.786-2.02 15.319-.644 25.976-9.968 25.976-23.605M782.854 197.728v130.978c0 12.983-11.067 20.602-32.336 20.534l-23.729-.076v-10.31l4.621.02c20.85.052 25.105-3.918 25.105-20.559v-118.963c0-13.615 11.881-23.931 28.072-25.263-16.191-1.34-28.072-11.65-28.072-25.287v-116.852c0-16.637-3.844-20.63-25.105-20.538l-4.621.017v-10.311l23.729-.09c21.269-.056 32.336 7.565 32.336 20.536v128.883c0 10.652 5.988 17.99 16.186 21.656 3.429 1.335 6.355 1.661 9.785 1.986-15.32.666-25.971 10.002-25.971 23.639"/><path clip-path="url(#b)" fill="#E72887" d="M260.826 296.407h6.846l-20.296 48.209h-1.558l-20.686-48.209h6.917l14.437 33.709zM271.59 296.406h6.872v48.003h-6.872zM287.983 344.41v-48.003h12.025c4.858 0 8.71 1.203 11.564 3.607 2.852 2.406 4.277 5.658 4.277 9.76 0 2.794-.698 5.211-2.096 7.249-1.398 2.041-3.402 3.563-6.012 4.571 1.533 1.008 3.034 2.383 4.5 4.123 1.467 1.741 3.529 4.777 6.185 9.105 1.672 2.726 3.012 4.776 4.021 6.15l2.543 3.437h-8.178l-2.093-3.162c-.069-.116-.208-.312-.413-.585l-1.338-1.891-2.128-3.507-2.298-3.747c-1.419-1.972-2.72-3.542-3.9-4.708-1.182-1.166-2.248-2.006-3.199-2.52-.953-.517-2.551-.771-4.8-.771h-1.788v20.891h-6.872zm8.934-42.16h-2.062v15.152h2.612c3.481 0 5.869-.297 7.162-.895 1.296-.595 2.304-1.493 3.025-2.696.722-1.204 1.083-2.573 1.083-4.104 0-1.515-.401-2.881-1.204-4.108-.8-1.224-1.93-2.09-3.383-2.593-1.456-.506-3.865-.756-7.233-.756"/><path clip-path="url(#b)" fill="#E72887" d="M318.524 296.338h40.098v6.117h-16.733v41.955h-6.909v-41.955h-16.456zM397.107 296.407h6.906v27.25c0 3.688-.268 6.472-.808 8.349-.537 1.877-1.201 3.44-1.991 4.688-.792 1.251-1.759 2.367-2.904 3.353-3.802 3.276-8.773 4.913-14.914 4.913-6.253 0-11.269-1.627-15.05-4.878-1.145-1.009-2.112-2.137-2.904-3.388-.79-1.248-1.443-2.776-1.957-4.586-.516-1.809-.774-4.649-.774-8.521v-27.181h6.907v27.25c0 4.513.516 7.65 1.545 9.414 1.033 1.765 2.602 3.18 4.708 4.242 2.107 1.067 4.592 1.6 7.457 1.6 4.076 0 7.399-1.067 9.966-3.197 1.351-1.146 2.322-2.496 2.92-4.055.595-1.557.893-4.227.893-8.004v-27.249zM425.762 296.132h4.829l21.525 48.277h-7.035l-6.399-14.227h-20.479l-5.998 14.227h-7.062l20.619-48.277zm10.098 27.934l-7.747-17.385-7.181 17.385h14.928zM456.034 296.407h6.872v41.75h21.612v6.253h-28.484zM489.194 296.406h6.873v48.003h-6.873zM501.294 296.338h40.098v6.117h-16.733v41.955h-6.907v-41.955h-16.458zM575.35 296.407h8.341l-17.73 22.609v25.394h-7.044v-25.394l-17.731-22.609h8.296l12.848 16.549zM442.057 5.308h-74.399v18.891h-18.308v18.311h-18.888v-37.202h-37.201v37.202h-37.198v37.201h37.201v-37.201h37.195v74.40299999999999h-18.307v18.31h18.31v-18.31h37.195v56.093h-18.307v18.31h-18.891v37.202h37.198v37.201h37.202v-37.201h37.197v37.201c71.91 0 130.206-58.295 130.206-130.205.001-71.911-58.295-130.206-130.205-130.206m0 74.403h-37.197v-37.201h37.197v37.201zm-74.396 0h37.194v37.202h-37.194v-37.202zm0 111.605h37.194v37.202h-37.194v-37.202zm74.396 0h-37.197v-37.202h37.197v37.202zM236.561 24.447h18.311v18.31h-18.311z"/></svg>