<svg xmlns="http://www.w3.org/2000/svg" xmlns:xlink="http://www.w3.org/1999/xlink" width="808.824" height="350.268" viewBox="0 0 808.824 350.268"><defs><path id="a" d="M0 0h808.824v350.268h-808.824z"/></defs><clipPath id="b"><use xlink:href="#a" overflow="visible"/></clipPath><path clip-path="url(#b)" fill="#636AAF" d="M25.976 149.436v-128.922c0-12.961 11.067-20.584 32.332-20.514l23.778.053v10.333l-4.665-.02c-20.808-.071-25.063 3.901-25.063 20.573v116.837c0 13.631-11.933 23.95-28.076 25.264 16.143 1.335 28.076 11.648 28.076 25.283v121.041c0 16.655 3.841 20.611 25.063 20.554l4.665-.021v10.299l-23.778.072c-21.265.092-32.332-7.531-32.332-20.532v-133.052c0-10.656-5.992-17.973-16.19-21.624-3.384-1.348-6.358-1.679-9.786-2.02 15.319-.643 25.976-9.968 25.976-23.604M782.854 197.727v130.979c0 12.983-11.067 20.602-32.336 20.533l-23.729-.076v-10.31l4.621.021c20.85.052 25.105-3.918 25.105-20.56v-118.962c0-13.615 11.881-23.931 28.072-25.263-16.191-1.34-28.072-11.65-28.072-25.287v-116.852c0-16.637-3.844-20.63-25.105-20.538l-4.621.017v-10.312l23.729-.089c21.269-.056 32.336 7.565 32.336 20.536v128.883c0 10.652 5.988 17.99 16.186 21.656 3.429 1.334 6.355 1.661 9.785 1.986-15.32.666-25.971 10.002-25.971 23.638M538.003 135.032c-2.728 0-5.386.282-7.987.727.629-3.825 1.04-7.724 1.04-11.727 0-39.648-32.141-71.789-71.789-71.789-31.465 0-58.137 20.276-67.832 48.449-9.353-20.701-30.134-35.133-54.325-35.133-32.934 0-59.631 26.698-59.631 59.631 0 5.784.865 11.359 2.401 16.648-3.723-1.009-7.621-1.595-11.664-1.595-24.62 0-44.579 19.958-44.579 44.578 0 24.621 19.959 44.579 44.579 44.579h269.787c26.059 0 47.184-21.125 47.184-47.184 0-26.059-21.125-47.184-47.184-47.184M335.52 338.683v7.496c-4.997 2.726-10.767 4.088-17.308 4.088-5.316 0-9.825-1.066-13.527-3.203-3.702-2.133-6.634-5.076-8.791-8.824-2.159-3.747-3.238-7.803-3.238-12.162 0-6.93 2.47-12.754 7.413-17.48 4.94-4.726 11.034-7.089 18.279-7.089 4.997 0 10.551 1.308 16.66 3.919v7.326c-5.563-3.18-11.005-4.771-16.321-4.771-5.451 0-9.976 1.722-13.577 5.162-3.6 3.441-5.399 7.752-5.399 12.933 0 5.225 1.77 9.517 5.313 12.877 3.546 3.362 8.076 5.045 13.596 5.045 5.77 0 11.404-1.774 16.9-5.317"/><path clip-path="url(#b)" fill="#636AAF" d="M342.507 302.123h6.815v41.398h21.43v6.201h-28.245zM398.694 301.44c7.361 0 13.486 2.329 18.381 6.987 4.896 4.655 7.345 10.493 7.345 17.512 0 7.021-2.472 12.83-7.412 17.429-4.939 4.6-11.17 6.899-18.689 6.899-7.178 0-13.157-2.3-17.94-6.899-4.781-4.599-7.173-10.363-7.173-17.29 0-7.11 2.408-12.995 7.225-17.65 4.815-4.659 10.903-6.988 18.263-6.988m.272 6.476c-5.452 0-9.932 1.703-13.441 5.109-3.509 3.407-5.264 7.761-5.264 13.053 0 5.133 1.76 9.401 5.28 12.809 3.522 3.408 7.929 5.113 13.221 5.113 5.316 0 9.75-1.739 13.306-5.215 3.553-3.476 5.331-7.802 5.331-12.981 0-5.042-1.778-9.285-5.331-12.726-3.556-3.442-7.922-5.162-13.102-5.162"/><path clip-path="url(#b)" fill="#636AAF" d="M464.488 302.123h6.851v27.02c0 3.658-.267 6.418-.799 8.28-.538 1.864-1.196 3.412-1.979 4.652-.783 1.237-1.744 2.345-2.878 3.32-3.77 3.248-8.698 4.872-14.788 4.872-6.2 0-11.175-1.613-14.924-4.838-1.136-1-2.094-2.117-2.88-3.354-.783-1.24-1.431-2.755-1.939-4.552-.513-1.793-.768-4.61-.768-8.448v-26.952h6.848v27.02c0 4.476.513 7.588 1.533 9.337 1.023 1.749 2.579 3.152 4.668 4.206 2.089 1.059 4.555 1.585 7.395 1.585 4.042 0 7.337-1.055 9.88-3.167 1.342-1.136 2.308-2.478 2.897-4.021.591-1.545.884-4.19.884-7.94v-27.02zM479.448 349.654v-47.531h16.047c6.475 0 11.598.971 15.368 2.914 3.77 1.941 6.768 4.798 8.994 8.568 2.228 3.772 3.34 7.882 3.34 12.334 0 3.181-.613 6.225-1.841 9.134-1.225 2.905-2.977 5.462-5.245 7.664-2.318 2.272-5.011 3.987-8.075 5.147-1.797.702-3.442 1.175-4.943 1.412-1.498.238-4.36.357-8.585.357h-15.06zm15.332-41.467h-8.518v35.402h8.724c3.406 0 6.052-.233 7.937-.697 1.886-.465 3.46-1.058 4.721-1.772 1.262-.717 2.413-1.597 3.457-2.641 3.363-3.406 5.044-7.713 5.044-12.914 0-5.111-1.728-9.278-5.18-12.506-1.271-1.204-2.73-2.19-4.379-2.963-1.647-.772-3.208-1.282-4.683-1.533-1.478-.251-3.851-.376-7.123-.376"/></svg>