<svg xmlns="http://www.w3.org/2000/svg" xmlns:xlink="http://www.w3.org/1999/xlink" width="808.824" height="350.267" viewBox="0 0 808.824 350.267"><defs><path id="a" d="M0 0h808.824v350.267h-808.824z"/></defs><clipPath id="b"><use xlink:href="#a" overflow="visible"/></clipPath><path clip-path="url(#b)" fill="#E5231B" d="M25.976 149.435v-128.922c0-12.961 11.067-20.584 32.332-20.513l23.778.053v10.332l-4.665-.019c-20.808-.072-25.063 3.901-25.063 20.572v116.838c0 13.631-11.933 23.949-28.076 25.264 16.143 1.335 28.076 11.646 28.076 25.281v121.043c0 16.654 3.841 20.609 25.063 20.553l4.665-.021v10.299l-23.778.071c-21.265.093-32.332-7.53-32.332-20.532v-133.05c0-10.656-5.992-17.974-16.19-21.624-3.384-1.349-6.358-1.679-9.786-2.02 15.319-.644 25.976-9.968 25.976-23.605M782.854 197.727v130.978c0 12.984-11.067 20.602-32.336 20.535l-23.729-.077v-10.31l4.621.021c20.85.052 25.105-3.918 25.105-20.56v-118.962c0-13.616 11.881-23.931 28.072-25.263-16.191-1.34-28.072-11.651-28.072-25.287v-116.853c0-16.636-3.844-20.63-25.105-20.537l-4.621.017v-10.312l23.729-.09c21.269-.056 32.336 7.566 32.336 20.536v128.883c0 10.652 5.988 17.991 16.186 21.656 3.429 1.335 6.355 1.662 9.785 1.987-15.32.666-25.971 10.001-25.971 23.638"/><path clip-path="url(#b)" fill="#E5231B" d="M489.344 126.647v-36.051c0-47.027-38.258-85.289-85.286-85.289-47.024 0-85.283 38.262-85.283 85.289v36.051h-11.319v139.072h193.207v-139.072h-11.319zm-131.367-36.051c0-25.414 20.673-46.087 46.081-46.087 25.412 0 46.084 20.673 46.084 46.087v36.051h-92.165v-36.051zM125.139 344.344v-47.598h16.069c6.484 0 11.612.973 15.39 2.918 3.775 1.944 6.777 4.806 9.007 8.581 2.227 3.775 3.344 7.894 3.344 12.351 0 3.186-.615 6.234-1.844 9.145-1.228 2.911-2.98 5.472-5.255 7.678-2.319 2.274-5.014 3.993-8.084 5.15-1.799.706-3.449 1.18-4.949 1.418-1.501.237-4.367.357-8.597.357h-15.081zm15.353-41.524h-8.529v35.451h8.733c3.412 0 6.063-.232 7.951-.701 1.887-.465 3.464-1.056 4.724-1.771 1.263-.717 2.419-1.598 3.465-2.645 3.364-3.413 5.048-7.723 5.048-12.931 0-5.12-1.728-9.293-5.184-12.523-1.276-1.205-2.735-2.194-4.385-2.969-1.65-.773-3.213-1.286-4.691-1.534-1.48-.25-3.856-.377-7.132-.377"/><path clip-path="url(#b)" fill="#E5231B" d="M176.149 296.746h6.824v47.666h-6.824zM217.915 320.939h16.001v20.197c-5.867 2.55-11.693 3.823-17.468 3.823-7.893 0-14.2-2.303-18.922-6.91-4.719-4.607-7.08-10.286-7.08-17.042 0-7.119 2.447-13.047 7.336-17.777 4.892-4.731 11.021-7.098 18.391-7.098 2.685 0 5.232.29 7.643.87 2.41.581 5.459 1.645 9.146 3.189v6.96c-5.687-3.297-11.33-4.945-16.925-4.945-5.208 0-9.601 1.774-13.169 5.322-3.572 3.549-5.357 7.904-5.357 13.067 0 5.415 1.785 9.839 5.357 13.275 3.568 3.433 8.165 5.149 13.784 5.149 2.729 0 5.992-.624 9.791-1.877l.649-.204v-9.93h-9.177v-6.069zM242.549 296.746h6.824v47.666h-6.824zM254.493 296.678h39.817v6.074h-16.616v41.661h-6.858v-41.661h-16.343zM307.595 296.474h4.795l21.374 47.938h-6.986l-6.354-14.126h-20.336l-5.956 14.126h-7.012l20.475-47.938zm10.026 27.738l-7.692-17.264-7.13 17.264h14.822zM337.654 296.747h6.824v41.457h21.463v6.209h-28.287zM400.407 324.44l-5.188-3.15c-3.252-1.984-5.566-3.94-6.944-5.861-1.375-1.922-2.063-4.134-2.063-6.636 0-3.755 1.302-6.801 3.906-9.146 2.604-2.343 5.988-3.514 10.153-3.514 3.979 0 7.629 1.119 10.952 3.352v7.747c-3.436-3.305-7.133-4.957-11.091-4.957-2.228 0-4.06.516-5.493 1.548-1.433 1.03-2.149 2.351-2.149 3.959 0 1.427.528 2.763 1.584 4.011 1.054 1.247 2.753 2.554 5.091 3.924l5.213 3.085c5.812 3.472 8.72 7.894 8.72 13.261 0 3.823-1.278 6.926-3.839 9.316-2.559 2.387-5.885 3.582-9.979 3.582-4.709 0-8.997-1.449-12.864-4.343v-8.667c3.686 4.67 7.951 7.004 12.796 7.004 2.138 0 3.919-.597 5.339-1.785 1.422-1.19 2.133-2.68 2.133-4.471 0-2.902-2.094-5.655-6.277-8.259"/><path clip-path="url(#b)" fill="#E5231B" d="M419.208 296.747h27.023v6.073h-20.199v14.534h19.518v6.108h-19.518v14.809h20.846v6.073h-27.67zM493.897 333.358v7.507c-5.004 2.729-10.781 4.095-17.334 4.095-5.317 0-9.836-1.069-13.544-3.208-3.707-2.14-6.641-5.083-8.8-8.837-2.162-3.752-3.243-7.813-3.243-12.183 0-6.936 2.475-12.771 7.421-17.502 4.947-4.731 11.05-7.098 18.308-7.098 5.004 0 10.562 1.31 16.681 3.924v7.337c-5.569-3.185-11.018-4.776-16.341-4.776-5.459 0-9.993 1.723-13.596 5.169-3.608 3.445-5.412 7.763-5.412 12.946 0 5.232 1.777 9.533 5.322 12.898 3.552 3.368 8.091 5.051 13.617 5.051 5.779 0 11.416-1.774 16.921-5.323"/><path clip-path="url(#b)" fill="#E5231B" d="M534.058 296.747h6.858v27.059c0 3.662-.266 6.426-.8 8.29-.536 1.864-1.195 3.418-1.979 4.657-.784 1.242-1.746 2.35-2.884 3.328-3.775 3.253-8.712 4.879-14.809 4.879-6.21 0-11.19-1.616-14.945-4.845-1.137-1.001-2.097-2.12-2.881-3.362-.784-1.239-1.434-2.759-1.945-4.555-.513-1.797-.769-4.617-.769-8.461v-26.99h6.857v27.059c0 4.481.514 7.598 1.538 9.349 1.022 1.753 2.58 3.156 4.672 4.213 2.095 1.059 4.562 1.587 7.404 1.587 4.05 0 7.347-1.059 9.896-3.175 1.343-1.137 2.31-2.478 2.9-4.025.591-1.545.886-4.197.886-7.948v-27.06zM549.176 344.413v-47.666h11.943c4.82 0 8.648 1.194 11.48 3.582 2.831 2.39 4.248 5.619 4.248 9.691 0 2.775-.695 5.175-2.081 7.198-1.388 2.027-3.378 3.538-5.972 4.539 1.525 1.002 3.012 2.366 4.469 4.095 1.456 1.729 3.503 4.743 6.142 9.041 1.66 2.706 2.991 4.743 3.992 6.107l2.526 3.412h-8.121l-2.079-3.141c-.067-.114-.204-.308-.408-.58l-1.331-1.877-2.111-3.482-2.283-3.721c-1.409-1.959-2.698-3.517-3.872-4.675s-2.233-1.992-3.176-2.502c-.947-.513-2.534-.766-4.768-.766h-1.774v20.743h-6.824zm8.871-41.865h-2.047v15.047h2.594c3.456 0 5.827-.296 7.114-.889 1.284-.591 2.285-1.483 3.001-2.678.717-1.194 1.075-2.555 1.075-4.076 0-1.503-.398-2.86-1.195-4.078-.795-1.216-1.917-2.076-3.36-2.576-1.446-.502-3.838-.75-7.182-.75"/><path clip-path="url(#b)" fill="#E5231B" d="M589.851 296.746h6.824v47.666h-6.824zM601.794 296.678h39.817v6.074h-16.615v41.661h-6.858v-41.661h-16.344zM675.402 296.747h8.283l-17.607 22.452v25.214h-6.994v-25.214l-17.606-22.452h8.238l12.757 16.432z"/></svg>