<svg xmlns="http://www.w3.org/2000/svg" xmlns:xlink="http://www.w3.org/1999/xlink" width="808.824" height="350.268" viewBox="0 0 808.824 350.268"><defs><path id="a" d="M0 0h808.824v350.268h-808.824z"/></defs><clipPath id="b"><use xlink:href="#a" overflow="visible"/></clipPath><path clip-path="url(#b)" fill="#EC6225" d="M25.976 149.437v-128.923c0-12.961 11.067-20.584 32.332-20.514l23.778.054v10.332l-4.665-.02c-20.808-.071-25.063 3.902-25.063 20.573v116.837c0 13.631-11.933 23.95-28.076 25.265 16.143 1.334 28.076 11.646 28.076 25.281v121.043c0 16.653 3.841 20.609 25.063 20.553l4.665-.021v10.3l-23.778.07c-21.265.093-32.332-7.529-32.332-20.531v-133.051c0-10.656-5.992-17.974-16.19-21.624-3.384-1.349-6.358-1.68-9.786-2.02 15.319-.644 25.976-9.968 25.976-23.604M782.854 197.728v130.978c0 12.984-11.067 20.602-32.336 20.535l-23.729-.077v-10.31l4.621.021c20.85.051 25.105-3.919 25.105-20.56v-118.963c0-13.614 11.881-23.931 28.072-25.263-16.191-1.34-28.072-11.65-28.072-25.286v-116.853c0-16.636-3.844-20.63-25.105-20.538l-4.621.017v-10.311l23.729-.09c21.269-.056 32.336 7.566 32.336 20.536v128.883c0 10.652 5.988 17.991 16.186 21.656 3.429 1.335 6.355 1.661 9.785 1.986-15.32.666-25.971 10.002-25.971 23.639M279.003 344.414h-16.14v-47.666h12.49c3.935 0 7.004.53 9.211 1.587 2.207 1.058 3.89 2.514 5.051 4.368 1.159 1.853 1.739 3.997 1.739 6.432 0 4.686-2.421 8.041-7.266 10.064 3.48.66 6.249 2.093 8.307 4.3 2.06 2.207 3.087 4.845 3.087 7.916 0 2.434-.625 4.604-1.874 6.517-1.253 1.911-3.091 3.469-5.512 4.674-2.423 1.204-5.454 1.808-9.093 1.808m-3.446-41.592h-5.87v14.329h4.539c3.64 0 6.228-.692 7.763-2.08 1.534-1.388 2.303-3.186 2.303-5.392 0-4.572-2.912-6.857-8.735-6.857m.512 20.403h-6.382v15.115h6.722c3.731 0 6.262-.291 7.593-.87 1.331-.58 2.4-1.484 3.208-2.712.805-1.229 1.21-2.548 1.21-3.959 0-1.455-.426-2.785-1.278-3.992-.855-1.205-2.066-2.104-3.634-2.695-1.572-.592-4.05-.887-7.439-.887"/><path clip-path="url(#b)" fill="#EC6225" d="M300.947 296.747h6.824v47.666h-6.824zM342.71 320.938h16.003v20.199c-5.87 2.548-11.692 3.823-17.47 3.823-7.894 0-14.2-2.304-18.919-6.911-4.722-4.604-7.081-10.287-7.081-17.043 0-7.119 2.445-13.044 7.337-17.776 4.889-4.73 11.02-7.097 18.391-7.097 2.682 0 5.232.29 7.642.87 2.411.581 5.459 1.644 9.143 3.19v6.961c-5.686-3.299-11.326-4.948-16.924-4.948-5.208 0-9.598 1.775-13.169 5.324-3.572 3.548-5.358 7.904-5.358 13.066 0 5.415 1.786 9.839 5.358 13.273 3.571 3.436 8.165 5.151 13.784 5.151 2.729 0 5.995-.625 9.794-1.876l.648-.205v-9.929h-9.179v-6.072zM385.434 344.345v-47.598h16.07c6.483 0 11.611.973 15.389 2.918 3.775 1.945 6.777 4.805 9.008 8.581 2.228 3.776 3.344 7.893 3.344 12.351 0 3.186-.614 6.233-1.843 9.146-1.229 2.911-2.981 5.471-5.257 7.677-2.318 2.275-5.014 3.992-8.084 5.152-1.799.704-3.447 1.177-4.948 1.416-1.501.237-4.367.357-8.597.357h-15.082zm15.353-41.523h-8.529v35.45h8.733c3.412 0 6.062-.232 7.951-.699 1.887-.466 3.464-1.058 4.724-1.774 1.263-.716 2.419-1.597 3.465-2.644 3.365-3.412 5.048-7.723 5.048-12.933 0-5.118-1.728-9.292-5.184-12.521-1.276-1.206-2.735-2.196-4.385-2.969-1.65-.773-3.214-1.284-4.691-1.535-1.479-.25-3.857-.375-7.132-.375"/><path clip-path="url(#b)" fill="#EC6225" d="M447.75 296.475h4.798l21.371 47.938h-6.986l-6.353-14.125h-20.334l-5.956 14.125h-7.012l20.472-47.938zm10.027 27.739l-7.69-17.265-7.132 17.265h14.822zM466.695 296.679h39.817v6.074h-16.616v41.661h-6.857v-41.661h-16.344zM519.795 296.475h4.795l21.371 47.938h-6.983l-6.354-14.125h-20.336l-5.956 14.125h-7.012l20.475-47.938zm10.024 27.739l-7.69-17.265-7.132 17.265h14.822zM290.041 135.514h65.103v130.205h-65.103zM371.861 70.411h65.102v195.308h-65.102zM453.68 5.308h65.104v260.411h-65.104z"/></svg>