<?xml version="1.0" encoding="utf-8"?>
<!-- Generator: Adobe Illustrator 16.0.0, SVG Export Plug-In . SVG Version: 6.00 Build 0)  -->
<!DOCTYPE svg PUBLIC "-//W3C//DTD SVG 1.1//EN" "http://www.w3.org/Graphics/SVG/1.1/DTD/svg11.dtd">
<svg version="1.1" id="Layer_1" xmlns="http://www.w3.org/2000/svg" xmlns:xlink="http://www.w3.org/1999/xlink" x="0px" y="0px"
	 width="808.824px" height="350.268px" viewBox="0 0 808.824 350.268" enable-background="new 0 0 808.824 350.268"
	 xml:space="preserve">
<g>
	<defs>
		<rect id="SVGID_1_" width="808.824" height="350.268"/>
	</defs>
	<clipPath id="SVGID_2_">
		<use xlink:href="#SVGID_1_"  overflow="visible"/>
	</clipPath>
	<path clip-path="url(#SVGID_2_)" fill="#EC6225" d="M25.976,149.437V20.514C25.976,7.553,37.043-0.07,58.308,0l23.778,0.054v10.332
		l-4.665-0.02c-20.808-0.071-25.063,3.902-25.063,20.573v116.837c0,13.631-11.933,23.95-28.076,25.265
		c16.143,1.334,28.076,11.646,28.076,25.281v121.043c0,16.653,3.841,20.609,25.063,20.553l4.665-0.021v10.3l-23.778,0.07
		c-21.265,0.093-32.332-7.529-32.332-20.531V196.685c0-10.656-5.992-17.974-16.19-21.624c-3.384-1.349-6.358-1.68-9.786-2.02
		C15.319,172.397,25.976,163.073,25.976,149.437"/>
	<path clip-path="url(#SVGID_2_)" fill="#EC6225" d="M782.854,197.728v130.978c0,12.984-11.067,20.602-32.336,20.535l-23.729-0.077
		v-10.31l4.621,0.021c20.85,0.051,25.105-3.919,25.105-20.56V199.352c0-13.614,11.881-23.931,28.072-25.263
		c-16.191-1.34-28.072-11.65-28.072-25.286V31.95c0-16.636-3.844-20.63-25.105-20.538l-4.621,0.017V1.118l23.729-0.09
		c21.269-0.056,32.336,7.566,32.336,20.536v128.883c0,10.652,5.988,17.991,16.186,21.656c3.429,1.335,6.355,1.661,9.785,1.986
		C793.505,174.755,782.854,184.091,782.854,197.728"/>
	<path clip-path="url(#SVGID_2_)" fill="#EC6225" d="M279.003,344.414h-16.14v-47.666h12.49c3.935,0,7.004,0.53,9.211,1.587
		c2.207,1.058,3.89,2.514,5.051,4.368c1.159,1.853,1.739,3.997,1.739,6.432c0,4.686-2.421,8.041-7.266,10.064
		c3.48,0.66,6.249,2.093,8.307,4.3c2.06,2.207,3.087,4.845,3.087,7.916c0,2.434-0.625,4.604-1.874,6.517
		c-1.253,1.911-3.091,3.469-5.512,4.674C285.673,343.81,282.642,344.414,279.003,344.414 M275.557,302.822h-5.87v14.329h4.539
		c3.64,0,6.228-0.692,7.763-2.08c1.534-1.388,2.303-3.186,2.303-5.392C284.292,305.107,281.38,302.822,275.557,302.822
		 M276.069,323.225h-6.382v15.115h6.722c3.731,0,6.262-0.291,7.593-0.87c1.331-0.58,2.4-1.484,3.208-2.712
		c0.805-1.229,1.21-2.548,1.21-3.959c0-1.455-0.426-2.785-1.278-3.992c-0.855-1.205-2.066-2.104-3.634-2.695
		C281.936,323.52,279.458,323.225,276.069,323.225"/>
	<rect x="300.947" y="296.747" clip-path="url(#SVGID_2_)" fill="#EC6225" width="6.824" height="47.666"/>
	<path clip-path="url(#SVGID_2_)" fill="#EC6225" d="M342.71,320.938h16.003v20.199c-5.87,2.548-11.692,3.823-17.47,3.823
		c-7.894,0-14.2-2.304-18.919-6.911c-4.722-4.604-7.081-10.287-7.081-17.043c0-7.119,2.445-13.044,7.337-17.776
		c4.889-4.73,11.02-7.097,18.391-7.097c2.682,0,5.232,0.29,7.642,0.87c2.411,0.581,5.459,1.644,9.143,3.19v6.961
		c-5.686-3.299-11.326-4.948-16.924-4.948c-5.208,0-9.598,1.775-13.169,5.324c-3.572,3.548-5.358,7.904-5.358,13.066
		c0,5.415,1.786,9.839,5.358,13.273c3.571,3.436,8.165,5.151,13.784,5.151c2.729,0,5.995-0.625,9.794-1.876l0.648-0.205v-9.929
		h-9.179V320.938z"/>
	<path clip-path="url(#SVGID_2_)" fill="#EC6225" d="M385.434,344.345v-47.598h16.07c6.483,0,11.611,0.973,15.389,2.918
		c3.775,1.945,6.777,4.805,9.008,8.581c2.228,3.776,3.344,7.893,3.344,12.351c0,3.186-0.614,6.233-1.843,9.146
		c-1.229,2.911-2.981,5.471-5.257,7.677c-2.318,2.275-5.014,3.992-8.084,5.152c-1.799,0.704-3.447,1.177-4.948,1.416
		c-1.501,0.237-4.367,0.357-8.597,0.357H385.434z M400.787,302.822h-8.529v35.45h8.733c3.412,0,6.062-0.232,7.951-0.699
		c1.887-0.466,3.464-1.058,4.724-1.774c1.263-0.716,2.419-1.597,3.465-2.644c3.365-3.412,5.048-7.723,5.048-12.933
		c0-5.118-1.728-9.292-5.184-12.521c-1.276-1.206-2.735-2.196-4.385-2.969c-1.65-0.773-3.214-1.284-4.691-1.535
		C406.44,302.947,404.062,302.822,400.787,302.822"/>
	<path clip-path="url(#SVGID_2_)" fill="#EC6225" d="M447.75,296.475h4.798l21.371,47.938h-6.986l-6.353-14.125h-20.334
		l-5.956,14.125h-7.012L447.75,296.475z M457.777,324.214l-7.69-17.265l-7.132,17.265H457.777z"/>
	<polygon clip-path="url(#SVGID_2_)" fill="#EC6225" points="466.695,296.679 506.512,296.679 506.512,302.753 489.896,302.753 
		489.896,344.414 483.039,344.414 483.039,302.753 466.695,302.753 	"/>
	<path clip-path="url(#SVGID_2_)" fill="#EC6225" d="M519.795,296.475h4.795l21.371,47.938h-6.983l-6.354-14.125h-20.336
		l-5.956,14.125h-7.012L519.795,296.475z M529.819,324.214l-7.69-17.265l-7.132,17.265H529.819z"/>
	<rect x="290.041" y="135.514" clip-path="url(#SVGID_2_)" fill="#EC6225" width="65.103" height="130.205"/>
	<rect x="371.861" y="70.411" clip-path="url(#SVGID_2_)" fill="#EC6225" width="65.102" height="195.308"/>
	<rect x="453.68" y="5.308" clip-path="url(#SVGID_2_)" fill="#EC6225" width="65.104" height="260.411"/>
</g>
</svg>
