<?xml version="1.0" encoding="utf-8"?>
<!-- Generator: Adobe Illustrator 16.0.0, SVG Export Plug-In . SVG Version: 6.00 Build 0)  -->
<!DOCTYPE svg PUBLIC "-//W3C//DTD SVG 1.1//EN" "http://www.w3.org/Graphics/SVG/1.1/DTD/svg11.dtd">
<svg version="1.1" id="Layer_1" xmlns="http://www.w3.org/2000/svg" xmlns:xlink="http://www.w3.org/1999/xlink" x="0px" y="0px"
	 width="808.824px" height="350.268px" viewBox="0 0 808.824 350.268" enable-background="new 0 0 808.824 350.268"
	 xml:space="preserve">
<g>
	<defs>
		<rect id="SVGID_1_" width="808.824" height="350.268"/>
	</defs>
	<clipPath id="SVGID_2_">
		<use xlink:href="#SVGID_1_"  overflow="visible"/>
	</clipPath>
	<path clip-path="url(#SVGID_2_)" fill="#636AAF" d="M25.976,149.436V20.514C25.976,7.553,37.043-0.07,58.308,0l23.778,0.053v10.333
		l-4.665-0.02c-20.808-0.071-25.063,3.901-25.063,20.573v116.837c0,13.631-11.933,23.95-28.076,25.264
		c16.143,1.335,28.076,11.648,28.076,25.283v121.041c0,16.655,3.841,20.611,25.063,20.554l4.665-0.021v10.299l-23.778,0.072
		c-21.265,0.092-32.332-7.531-32.332-20.532V196.684c0-10.656-5.992-17.973-16.19-21.624c-3.384-1.348-6.358-1.679-9.786-2.02
		C15.319,172.397,25.976,163.072,25.976,149.436"/>
	<path clip-path="url(#SVGID_2_)" fill="#636AAF" d="M782.854,197.727v130.979c0,12.983-11.067,20.602-32.336,20.533l-23.729-0.076
		v-10.31l4.621,0.021c20.85,0.052,25.105-3.918,25.105-20.56V199.352c0-13.615,11.881-23.931,28.072-25.263
		c-16.191-1.34-28.072-11.65-28.072-25.287V31.95c0-16.637-3.844-20.63-25.105-20.538l-4.621,0.017V1.117l23.729-0.089
		c21.269-0.056,32.336,7.565,32.336,20.536v128.883c0,10.652,5.988,17.99,16.186,21.656c3.429,1.334,6.355,1.661,9.785,1.986
		C793.505,174.755,782.854,184.091,782.854,197.727"/>
	<path clip-path="url(#SVGID_2_)" fill="#636AAF" d="M538.003,135.032c-2.728,0-5.386,0.282-7.987,0.727
		c0.629-3.825,1.04-7.724,1.04-11.727c0-39.648-32.141-71.789-71.789-71.789c-31.465,0-58.137,20.276-67.832,48.449
		c-9.353-20.701-30.134-35.133-54.325-35.133c-32.934,0-59.631,26.698-59.631,59.631c0,5.784,0.865,11.359,2.401,16.648
		c-3.723-1.009-7.621-1.595-11.664-1.595c-24.62,0-44.579,19.958-44.579,44.578c0,24.621,19.959,44.579,44.579,44.579h269.787
		c26.059,0,47.184-21.125,47.184-47.184C585.187,156.157,564.062,135.032,538.003,135.032"/>
	<path clip-path="url(#SVGID_2_)" fill="#636AAF" d="M335.52,338.683v7.496c-4.997,2.726-10.767,4.088-17.308,4.088
		c-5.316,0-9.825-1.066-13.527-3.203c-3.702-2.133-6.634-5.076-8.791-8.824c-2.159-3.747-3.238-7.803-3.238-12.162
		c0-6.93,2.47-12.754,7.413-17.48c4.94-4.726,11.034-7.089,18.279-7.089c4.997,0,10.551,1.308,16.66,3.919v7.326
		c-5.563-3.18-11.005-4.771-16.321-4.771c-5.451,0-9.976,1.722-13.577,5.162c-3.6,3.441-5.399,7.752-5.399,12.933
		c0,5.225,1.77,9.517,5.313,12.877C308.57,342.317,313.1,344,318.62,344C324.39,344,330.024,342.226,335.52,338.683"/>
	<polygon clip-path="url(#SVGID_2_)" fill="#636AAF" points="342.507,302.123 349.322,302.123 349.322,343.521 370.752,343.521 
		370.752,349.722 342.507,349.722 	"/>
	<path clip-path="url(#SVGID_2_)" fill="#636AAF" d="M398.694,301.44c7.361,0,13.486,2.329,18.381,6.987
		c4.896,4.655,7.345,10.493,7.345,17.512c0,7.021-2.472,12.83-7.412,17.429c-4.939,4.6-11.17,6.899-18.689,6.899
		c-7.178,0-13.157-2.3-17.94-6.899c-4.781-4.599-7.173-10.363-7.173-17.29c0-7.11,2.408-12.995,7.225-17.65
		C385.246,303.769,391.334,301.44,398.694,301.44 M398.966,307.916c-5.452,0-9.932,1.703-13.441,5.109
		c-3.509,3.407-5.264,7.761-5.264,13.053c0,5.133,1.76,9.401,5.28,12.809c3.522,3.408,7.929,5.113,13.221,5.113
		c5.316,0,9.75-1.739,13.306-5.215c3.553-3.476,5.331-7.802,5.331-12.981c0-5.042-1.778-9.285-5.331-12.726
		C408.512,309.636,404.146,307.916,398.966,307.916"/>
	<path clip-path="url(#SVGID_2_)" fill="#636AAF" d="M464.488,302.123h6.851v27.02c0,3.658-0.267,6.418-0.799,8.28
		c-0.538,1.864-1.196,3.412-1.979,4.652c-0.783,1.237-1.744,2.345-2.878,3.32c-3.77,3.248-8.698,4.872-14.788,4.872
		c-6.2,0-11.175-1.613-14.924-4.838c-1.136-1-2.094-2.117-2.88-3.354c-0.783-1.24-1.431-2.755-1.939-4.552
		c-0.513-1.793-0.768-4.61-0.768-8.448v-26.952h6.848v27.02c0,4.476,0.513,7.588,1.533,9.337c1.023,1.749,2.579,3.152,4.668,4.206
		c2.089,1.059,4.555,1.585,7.395,1.585c4.042,0,7.337-1.055,9.88-3.167c1.342-1.136,2.308-2.478,2.897-4.021
		c0.591-1.545,0.884-4.19,0.884-7.94V302.123z"/>
	<path clip-path="url(#SVGID_2_)" fill="#636AAF" d="M479.448,349.654v-47.531h16.047c6.475,0,11.598,0.971,15.368,2.914
		c3.77,1.941,6.768,4.798,8.994,8.568c2.228,3.772,3.34,7.882,3.34,12.334c0,3.181-0.613,6.225-1.841,9.134
		c-1.225,2.905-2.977,5.462-5.245,7.664c-2.318,2.272-5.011,3.987-8.075,5.147c-1.797,0.702-3.442,1.175-4.943,1.412
		c-1.498,0.238-4.36,0.357-8.585,0.357H479.448z M494.78,308.187h-8.518v35.402h8.724c3.406,0,6.052-0.233,7.937-0.697
		c1.886-0.465,3.46-1.058,4.721-1.772c1.262-0.717,2.413-1.597,3.457-2.641c3.363-3.406,5.044-7.713,5.044-12.914
		c0-5.111-1.728-9.278-5.18-12.506c-1.271-1.204-2.73-2.19-4.379-2.963c-1.647-0.772-3.208-1.282-4.683-1.533
		C500.425,308.312,498.052,308.187,494.78,308.187"/>
</g>
</svg>
