<?xml version="1.0" encoding="utf-8"?>
<!-- Generator: Adobe Illustrator 16.0.0, SVG Export Plug-In . SVG Version: 6.00 Build 0)  -->
<!DOCTYPE svg PUBLIC "-//W3C//DTD SVG 1.1//EN" "http://www.w3.org/Graphics/SVG/1.1/DTD/svg11.dtd">
<svg version="1.1" id="Layer_1" xmlns="http://www.w3.org/2000/svg" xmlns:xlink="http://www.w3.org/1999/xlink" x="0px" y="0px"
	 width="808.824px" height="350.267px" viewBox="0 0 808.824 350.267" enable-background="new 0 0 808.824 350.267"
	 xml:space="preserve">
<g>
	<defs>
		<rect id="SVGID_1_" width="808.824" height="350.267"/>
	</defs>
	<clipPath id="SVGID_2_">
		<use xlink:href="#SVGID_1_"  overflow="visible"/>
	</clipPath>
	<path clip-path="url(#SVGID_2_)" fill="#E5231B" d="M25.976,149.435V20.513C25.976,7.552,37.043-0.071,58.308,0l23.778,0.053
		v10.332l-4.665-0.019c-20.808-0.072-25.063,3.901-25.063,20.572v116.838c0,13.631-11.933,23.949-28.076,25.264
		c16.143,1.335,28.076,11.646,28.076,25.281v121.043c0,16.654,3.841,20.609,25.063,20.553l4.665-0.021v10.299l-23.778,0.071
		c-21.265,0.093-32.332-7.53-32.332-20.532v-133.05c0-10.656-5.992-17.974-16.19-21.624c-3.384-1.349-6.358-1.679-9.786-2.02
		C15.319,172.396,25.976,163.072,25.976,149.435"/>
	<path clip-path="url(#SVGID_2_)" fill="#E5231B" d="M782.854,197.727v130.978c0,12.984-11.067,20.602-32.336,20.535l-23.729-0.077
		v-10.31l4.621,0.021c20.85,0.052,25.105-3.918,25.105-20.56V199.352c0-13.616,11.881-23.931,28.072-25.263
		c-16.191-1.34-28.072-11.651-28.072-25.287V31.949c0-16.636-3.844-20.63-25.105-20.537l-4.621,0.017V1.117l23.729-0.09
		c21.269-0.056,32.336,7.566,32.336,20.536v128.883c0,10.652,5.988,17.991,16.186,21.656c3.429,1.335,6.355,1.662,9.785,1.987
		C793.505,174.755,782.854,184.09,782.854,197.727"/>
	<path clip-path="url(#SVGID_2_)" fill="#E5231B" d="M489.344,126.647V90.596c0-47.027-38.258-85.289-85.286-85.289
		c-47.024,0-85.283,38.262-85.283,85.289v36.051h-11.319v139.072h193.207V126.647H489.344z M357.977,90.596
		c0-25.414,20.673-46.087,46.081-46.087c25.412,0,46.084,20.673,46.084,46.087v36.051h-92.165V90.596z"/>
	<path clip-path="url(#SVGID_2_)" fill="#E5231B" d="M125.139,344.344v-47.598h16.069c6.484,0,11.612,0.973,15.39,2.918
		c3.775,1.944,6.777,4.806,9.007,8.581c2.227,3.775,3.344,7.894,3.344,12.351c0,3.186-0.615,6.234-1.844,9.145
		c-1.228,2.911-2.98,5.472-5.255,7.678c-2.319,2.274-5.014,3.993-8.084,5.15c-1.799,0.706-3.449,1.18-4.949,1.418
		c-1.501,0.237-4.367,0.357-8.597,0.357H125.139z M140.492,302.82h-8.529v35.451h8.733c3.412,0,6.063-0.232,7.951-0.701
		c1.887-0.465,3.464-1.056,4.724-1.771c1.263-0.717,2.419-1.598,3.465-2.645c3.364-3.413,5.048-7.723,5.048-12.931
		c0-5.12-1.728-9.293-5.184-12.523c-1.276-1.205-2.735-2.194-4.385-2.969c-1.65-0.773-3.213-1.286-4.691-1.534
		C146.144,302.947,143.768,302.82,140.492,302.82"/>
	<rect x="176.149" y="296.746" clip-path="url(#SVGID_2_)" fill="#E5231B" width="6.824" height="47.666"/>
	<path clip-path="url(#SVGID_2_)" fill="#E5231B" d="M217.915,320.939h16.001v20.197c-5.867,2.55-11.693,3.823-17.468,3.823
		c-7.893,0-14.2-2.303-18.922-6.91c-4.719-4.607-7.08-10.286-7.08-17.042c0-7.119,2.447-13.047,7.336-17.777
		c4.892-4.731,11.021-7.098,18.391-7.098c2.685,0,5.232,0.29,7.643,0.87c2.41,0.581,5.459,1.645,9.146,3.189v6.96
		c-5.687-3.297-11.33-4.945-16.925-4.945c-5.208,0-9.601,1.774-13.169,5.322c-3.572,3.549-5.357,7.904-5.357,13.067
		c0,5.415,1.785,9.839,5.357,13.275c3.568,3.433,8.165,5.149,13.784,5.149c2.729,0,5.992-0.624,9.791-1.877l0.649-0.204v-9.93
		h-9.177V320.939z"/>
	<rect x="242.549" y="296.746" clip-path="url(#SVGID_2_)" fill="#E5231B" width="6.824" height="47.666"/>
	<polygon clip-path="url(#SVGID_2_)" fill="#E5231B" points="254.493,296.678 294.31,296.678 294.31,302.752 277.694,302.752 
		277.694,344.413 270.836,344.413 270.836,302.752 254.493,302.752 	"/>
	<path clip-path="url(#SVGID_2_)" fill="#E5231B" d="M307.595,296.474h4.795l21.374,47.938h-6.986l-6.354-14.126h-20.336
		l-5.956,14.126h-7.012L307.595,296.474z M317.621,324.212l-7.692-17.264l-7.13,17.264H317.621z"/>
	<polygon clip-path="url(#SVGID_2_)" fill="#E5231B" points="337.654,296.747 344.478,296.747 344.478,338.204 365.941,338.204 
		365.941,344.413 337.654,344.413 	"/>
	<path clip-path="url(#SVGID_2_)" fill="#E5231B" d="M400.407,324.44l-5.188-3.15c-3.252-1.984-5.566-3.94-6.944-5.861
		c-1.375-1.922-2.063-4.134-2.063-6.636c0-3.755,1.302-6.801,3.906-9.146c2.604-2.343,5.988-3.514,10.153-3.514
		c3.979,0,7.629,1.119,10.952,3.352v7.747c-3.436-3.305-7.133-4.957-11.091-4.957c-2.228,0-4.06,0.516-5.493,1.548
		c-1.433,1.03-2.149,2.351-2.149,3.959c0,1.427,0.528,2.763,1.584,4.011c1.054,1.247,2.753,2.554,5.091,3.924l5.213,3.085
		c5.812,3.472,8.72,7.894,8.72,13.261c0,3.823-1.278,6.926-3.839,9.316c-2.559,2.387-5.885,3.582-9.979,3.582
		c-4.709,0-8.997-1.449-12.864-4.343v-8.667c3.686,4.67,7.951,7.004,12.796,7.004c2.138,0,3.919-0.597,5.339-1.785
		c1.422-1.19,2.133-2.68,2.133-4.471C406.684,329.797,404.59,327.044,400.407,324.44"/>
	<polygon clip-path="url(#SVGID_2_)" fill="#E5231B" points="419.208,296.747 446.231,296.747 446.231,302.82 426.032,302.82 
		426.032,317.354 445.55,317.354 445.55,323.462 426.032,323.462 426.032,338.271 446.878,338.271 446.878,344.344 419.208,344.344 
			"/>
	<path clip-path="url(#SVGID_2_)" fill="#E5231B" d="M493.897,333.358v7.507c-5.004,2.729-10.781,4.095-17.334,4.095
		c-5.317,0-9.836-1.069-13.544-3.208c-3.707-2.14-6.641-5.083-8.8-8.837c-2.162-3.752-3.243-7.813-3.243-12.183
		c0-6.936,2.475-12.771,7.421-17.502c4.947-4.731,11.05-7.098,18.308-7.098c5.004,0,10.562,1.31,16.681,3.924v7.337
		c-5.569-3.185-11.018-4.776-16.341-4.776c-5.459,0-9.993,1.723-13.596,5.169c-3.608,3.445-5.412,7.763-5.412,12.946
		c0,5.232,1.777,9.533,5.322,12.898c3.552,3.368,8.091,5.051,13.617,5.051C482.755,338.681,488.392,336.907,493.897,333.358"/>
	<path clip-path="url(#SVGID_2_)" fill="#E5231B" d="M534.058,296.747h6.858v27.059c0,3.662-0.266,6.426-0.8,8.29
		c-0.536,1.864-1.195,3.418-1.979,4.657c-0.784,1.242-1.746,2.35-2.884,3.328c-3.775,3.253-8.712,4.879-14.809,4.879
		c-6.21,0-11.19-1.616-14.945-4.845c-1.137-1.001-2.097-2.12-2.881-3.362c-0.784-1.239-1.434-2.759-1.945-4.555
		c-0.513-1.797-0.769-4.617-0.769-8.461v-26.99h6.857v27.059c0,4.481,0.514,7.598,1.538,9.349c1.022,1.753,2.58,3.156,4.672,4.213
		c2.095,1.059,4.562,1.587,7.404,1.587c4.05,0,7.347-1.059,9.896-3.175c1.343-1.137,2.31-2.478,2.9-4.025
		c0.591-1.545,0.886-4.197,0.886-7.948V296.747z"/>
	<path clip-path="url(#SVGID_2_)" fill="#E5231B" d="M549.176,344.413v-47.666h11.943c4.82,0,8.648,1.194,11.48,3.582
		c2.831,2.39,4.248,5.619,4.248,9.691c0,2.775-0.695,5.175-2.081,7.198c-1.388,2.027-3.378,3.538-5.972,4.539
		c1.525,1.002,3.012,2.366,4.469,4.095c1.456,1.729,3.503,4.743,6.142,9.041c1.66,2.706,2.991,4.743,3.992,6.107l2.526,3.412h-8.121
		l-2.079-3.141c-0.067-0.114-0.204-0.308-0.408-0.58l-1.331-1.877l-2.111-3.482l-2.283-3.721c-1.409-1.959-2.698-3.517-3.872-4.675
		s-2.233-1.992-3.176-2.502c-0.947-0.513-2.534-0.766-4.768-0.766H556v20.743H549.176z M558.047,302.548H556v15.047h2.594
		c3.456,0,5.827-0.296,7.114-0.889c1.284-0.591,2.285-1.483,3.001-2.678c0.717-1.194,1.075-2.555,1.075-4.076
		c0-1.503-0.398-2.86-1.195-4.078c-0.795-1.216-1.917-2.076-3.36-2.576C563.783,302.796,561.391,302.548,558.047,302.548"/>
	<rect x="589.851" y="296.746" clip-path="url(#SVGID_2_)" fill="#E5231B" width="6.824" height="47.666"/>
	<polygon clip-path="url(#SVGID_2_)" fill="#E5231B" points="601.794,296.678 641.611,296.678 641.611,302.752 624.996,302.752 
		624.996,344.413 618.138,344.413 618.138,302.752 601.794,302.752 	"/>
	<polygon clip-path="url(#SVGID_2_)" fill="#E5231B" points="675.402,296.747 683.685,296.747 666.078,319.199 666.078,344.413 
		659.084,344.413 659.084,319.199 641.478,296.747 649.716,296.747 662.473,313.179 	"/>
</g>
</svg>
