<?xml version="1.0" encoding="utf-8"?>
<!-- Generator: Adobe Illustrator 16.0.0, SVG Export Plug-In . SVG Version: 6.00 Build 0)  -->
<!DOCTYPE svg PUBLIC "-//W3C//DTD SVG 1.1//EN" "http://www.w3.org/Graphics/SVG/1.1/DTD/svg11.dtd">
<svg version="1.1" id="Layer_1" xmlns="http://www.w3.org/2000/svg" xmlns:xlink="http://www.w3.org/1999/xlink" x="0px" y="0px"
	 width="808.824px" height="350.267px" viewBox="0 0 808.824 350.267" enable-background="new 0 0 808.824 350.267"
	 xml:space="preserve">
<g>
	<defs>
		<rect id="SVGID_1_" width="808.824" height="350.267"/>
	</defs>
	<clipPath id="SVGID_2_">
		<use xlink:href="#SVGID_1_"  overflow="visible"/>
	</clipPath>
	<path clip-path="url(#SVGID_2_)" fill="#00B1EB" d="M25.976,149.437V20.514C25.976,7.552,37.043-0.07,58.308,0l23.778,0.053v10.332
		l-4.665-0.019c-20.808-0.072-25.063,3.901-25.063,20.572v116.838c0,13.631-11.933,23.949-28.076,25.264
		c16.143,1.335,28.076,11.647,28.076,25.281v121.043c0,16.654,3.841,20.609,25.063,20.553l4.665-0.021v10.3l-23.778,0.07
		c-21.265,0.094-32.332-7.529-32.332-20.531V196.684c0-10.655-5.992-17.973-16.19-21.624c-3.384-1.348-6.358-1.679-9.786-2.02
		C15.319,172.397,25.976,163.072,25.976,149.437"/>
	<path clip-path="url(#SVGID_2_)" fill="#00B1EB" d="M782.854,197.727v130.979c0,12.983-11.067,20.601-32.336,20.534l-23.729-0.077
		v-10.31l4.621,0.021c20.85,0.052,25.105-3.918,25.105-20.56V199.352c0-13.614,11.881-23.931,28.072-25.263
		c-16.191-1.34-28.072-11.65-28.072-25.287V31.949c0-16.636-3.844-20.63-25.105-20.537l-4.621,0.017V1.117l23.729-0.09
		c21.269-0.056,32.336,7.566,32.336,20.537v128.883c0,10.652,5.988,17.99,16.186,21.656c3.429,1.334,6.355,1.661,9.785,1.986
		C793.505,174.755,782.854,184.091,782.854,197.727"/>
	<path clip-path="url(#SVGID_2_)" fill="#00B1EB" d="M379.451,115.938l-77.54-99.17l27.072-11.459l109.436,86.66l77.779-31.37
		c0,0,18.765-6.445,23.922,4.011c5.156,10.456-13.896,19.481-13.896,19.481l-77.636,31.8l-17.476,138.513l-27.501,11.315
		l-14.038-125.765l-60.448,24.924l-7.018,33.088l-23.062,9.454l1.289-44.548l-32.516-31.226l23.062-9.598l28.505,18.908
		L379.451,115.938z"/>
	<polygon clip-path="url(#SVGID_2_)" fill="#00B1EB" points="231.38,296.132 259.062,296.132 259.062,302.353 238.37,302.353 
		238.37,317.243 258.363,317.243 258.363,323.499 238.37,323.499 238.37,338.668 259.723,338.668 259.723,344.889 231.38,344.889 	
		"/>
	<polygon clip-path="url(#SVGID_2_)" fill="#00B1EB" points="304.568,296.132 311.103,296.132 311.103,344.959 304.078,344.959 
		304.078,306.965 289.067,325.839 287.773,325.839 272.587,306.965 272.587,344.959 265.597,344.959 265.597,296.132 
		272.215,296.132 288.44,316.184 	"/>
	<path clip-path="url(#SVGID_2_)" fill="#00B1EB" d="M336.798,344.959h-16.533v-48.827h12.792c4.03,0,7.177,0.541,9.438,1.626
		c2.26,1.082,3.982,2.573,5.172,4.472c1.189,1.899,1.783,4.096,1.783,6.589c0,4.8-2.482,8.238-7.445,10.312
		c3.564,0.675,6.401,2.143,8.511,4.403c2.108,2.26,3.163,4.963,3.163,8.109c0,2.493-0.642,4.716-1.923,6.674
		c-1.283,1.958-3.163,3.555-5.645,4.789C343.63,344.34,340.524,344.959,336.798,344.959 M333.268,302.353h-6.012v14.681h4.649
		c3.726,0,6.377-0.71,7.949-2.133c1.575-1.422,2.36-3.262,2.36-5.521C342.214,304.694,339.233,302.353,333.268,302.353
		 M333.791,323.254h-6.535v15.482h6.885c3.822,0,6.412-0.297,7.775-0.892c1.363-0.594,2.459-1.521,3.286-2.777
		c0.828-1.258,1.241-2.61,1.241-4.055c0-1.491-0.437-2.854-1.31-4.089c-0.873-1.235-2.116-2.156-3.723-2.762
		C339.803,323.557,337.264,323.254,333.791,323.254"/>
	<polygon clip-path="url(#SVGID_2_)" fill="#00B1EB" points="359.202,296.132 386.884,296.132 386.884,302.353 366.192,302.353 
		366.192,317.243 386.185,317.243 386.185,323.499 366.192,323.499 366.192,338.668 387.548,338.668 387.548,344.889 
		359.202,344.889 	"/>
	<path clip-path="url(#SVGID_2_)" fill="#00B1EB" d="M393.633,344.889v-48.757h16.461c6.643,0,11.895,0.996,15.764,2.989
		c3.868,1.992,6.942,4.922,9.228,8.79c2.281,3.866,3.425,8.085,3.425,12.651c0,3.263-0.629,6.386-1.888,9.366
		c-1.259,2.983-3.053,5.605-5.383,7.866c-2.376,2.33-5.138,4.087-8.281,5.276c-1.843,0.723-3.533,1.204-5.071,1.45
		c-1.537,0.244-4.472,0.367-8.806,0.367H393.633z M409.36,302.353h-8.737v36.315h8.946c3.494,0,6.211-0.239,8.145-0.718
		c1.933-0.478,3.548-1.082,4.839-1.816c1.294-0.734,2.478-1.636,3.549-2.71c3.447-3.495,5.171-7.909,5.171-13.247
		c0-5.241-1.77-9.518-5.31-12.826c-1.308-1.234-2.802-2.25-4.492-3.04c-1.689-0.793-3.292-1.317-4.805-1.575
		C415.149,302.482,412.716,302.353,409.36,302.353"/>
	<path clip-path="url(#SVGID_2_)" fill="#00B1EB" d="M445.886,344.889v-48.757h16.458c6.643,0,11.897,0.996,15.764,2.989
		c3.867,1.992,6.942,4.922,9.229,8.79c2.282,3.866,3.423,8.085,3.423,12.651c0,3.263-0.627,6.386-1.886,9.366
		c-1.258,2.983-3.053,5.605-5.383,7.866c-2.378,2.33-5.138,4.087-8.281,5.276c-1.843,0.723-3.53,1.204-5.073,1.45
		c-1.537,0.244-4.472,0.367-8.805,0.367H445.886z M461.61,302.353h-8.734v36.315h8.948c3.492,0,6.208-0.239,8.142-0.718
		c1.934-0.478,3.546-1.082,4.842-1.816c1.291-0.734,2.476-1.636,3.546-2.71c3.45-3.495,5.176-7.909,5.176-13.247
		c0-5.241-1.773-9.518-5.314-12.826c-1.307-1.234-2.801-2.25-4.494-3.04c-1.687-0.793-3.289-1.317-4.805-1.575
		C467.399,302.482,464.968,302.353,461.61,302.353"/>
	<polygon clip-path="url(#SVGID_2_)" fill="#00B1EB" points="498.141,296.132 525.821,296.132 525.821,302.353 505.132,302.353 
		505.132,317.243 525.122,317.243 525.122,323.499 505.132,323.499 505.132,338.668 526.484,338.668 526.484,344.889 
		498.141,344.889 	"/>
	<path clip-path="url(#SVGID_2_)" fill="#00B1EB" d="M532.568,344.889v-48.757h16.459c6.643,0,11.897,0.996,15.765,2.989
		c3.867,1.992,6.941,4.922,9.227,8.79c2.284,3.866,3.425,8.085,3.425,12.651c0,3.263-0.629,6.386-1.888,9.366
		c-1.256,2.983-3.053,5.605-5.38,7.866c-2.379,2.33-5.14,4.087-8.284,5.276c-1.843,0.723-3.529,1.204-5.069,1.45
		c-1.538,0.244-4.474,0.367-8.807,0.367H532.568z M548.294,302.353h-8.736v36.315h8.948c3.495,0,6.208-0.239,8.142-0.718
		c1.934-0.478,3.549-1.082,4.843-1.816s2.475-1.636,3.546-2.71c3.45-3.495,5.174-7.909,5.174-13.247
		c0-5.241-1.773-9.518-5.313-12.826c-1.305-1.234-2.802-2.25-4.491-3.04c-1.69-0.793-3.291-1.317-4.806-1.575
		C554.085,302.482,551.649,302.353,548.294,302.353"/>
</g>
</svg>
