<?xml version="1.0" encoding="utf-8"?>
<!-- Generator: Adobe Illustrator 16.0.0, SVG Export Plug-In . SVG Version: 6.00 Build 0)  -->
<!DOCTYPE svg PUBLIC "-//W3C//DTD SVG 1.1//EN" "http://www.w3.org/Graphics/SVG/1.1/DTD/svg11.dtd">
<svg version="1.1" id="Layer_1" xmlns="http://www.w3.org/2000/svg" xmlns:xlink="http://www.w3.org/1999/xlink" x="0px" y="0px"
	 width="1417.32px" height="455.982px" viewBox="0 0 1417.32 455.982" enable-background="new 0 0 1417.32 455.982"
	 xml:space="preserve">
<rect x="132.483" y="289.618" fill="#004F9F" width="16.974" height="96.674"/>
<g>
	<defs>
		<rect id="SVGID_1_" width="1417.322" height="455.982"/>
	</defs>
	<clipPath id="SVGID_2_">
		<use xlink:href="#SVGID_1_"  overflow="visible"/>
	</clipPath>
	<path clip-path="url(#SVGID_2_)" fill="#004F9F" d="M260.447,289.618h-18.102v71.841c0,5.61-2.384,8.417-7.155,8.417
		c-1.594,0-2.81-0.488-3.649-1.475c-0.84-0.982-1.591-2.452-2.248-4.419l-19.501-59.634c-1.591-4.768-4.347-8.464-8.282-11.081
		c-3.927-2.62-8.372-3.932-13.328-3.932c-3.555,0-6.855,0.56-9.891,1.684c-3.037,1.124-5.68,2.715-7.928,4.77
		c-2.248,2.062-3.999,4.56-5.263,7.507c-1.263,2.949-1.893,6.198-1.893,9.753v73.243h18.098v-71.556
		c0-5.614,2.387-8.421,7.161-8.421c1.591,0,2.825,0.537,3.715,1.61c0.891,1.075,1.614,2.598,2.176,4.561l19.366,59.493
		c1.584,4.772,4.35,8.492,8.277,11.156c3.928,2.665,8.417,4.001,13.468,4.001c3.46,0,6.712-0.563,9.752-1.684
		c3.037-1.124,5.683-2.736,7.928-4.843c2.244-2.106,4.022-4.604,5.332-7.507c1.31-2.898,1.967-6.172,1.967-9.826V289.618z"/>
	<path clip-path="url(#SVGID_2_)" fill="#004F9F" d="M371.429,289.618H353.33v71.841c0,5.61-2.383,8.417-7.157,8.417
		c-1.591,0-2.807-0.488-3.646-1.475c-0.843-0.982-1.596-2.452-2.245-4.419l-19.504-59.634c-1.592-4.768-4.351-8.464-8.282-11.081
		c-3.927-2.62-8.372-3.932-13.325-3.932c-3.562,0-6.854,0.56-9.894,1.684s-5.683,2.715-7.928,4.77
		c-2.244,2.062-3.996,4.56-5.263,7.507c-1.262,2.949-1.894,6.198-1.894,9.753v73.243h18.099v-71.556
		c0-5.614,2.384-8.421,7.157-8.421c1.592,0,2.833,0.537,3.72,1.61c0.89,1.075,1.616,2.598,2.175,4.561l19.362,59.493
		c1.591,4.772,4.351,8.492,8.277,11.156c3.931,2.665,8.417,4.001,13.471,4.001c3.461,0,6.713-0.563,9.749-1.684
		c3.041-1.124,5.686-2.736,7.928-4.843c2.248-2.106,4.029-4.604,5.335-7.507c1.307-2.898,1.964-6.172,1.964-9.826V289.618z"/>
	<path clip-path="url(#SVGID_2_)" fill="#004F9F" d="M428.045,289.618c-29.322,0-44.036,15.993-44.127,47.986v0.424
		c0,32.177,14.659,48.264,43.984,48.264h7.587c29.323,0,43.981-16.087,43.981-48.264v-0.424
		c-0.281-31.993-14.986-47.986-44.126-47.986H428.045z M439.673,306.596c7.562,0,13.256,2.521,17.081,7.559
		c3.828,5.04,5.737,13.021,5.737,23.942c0,20.814-7.555,31.217-22.672,31.217h-16.245c-15.118,0-22.676-10.402-22.676-31.217
		c0-10.921,1.889-18.902,5.668-23.942c3.777-5.037,9.497-7.559,17.146-7.559H439.673z"/>
	<path clip-path="url(#SVGID_2_)" fill="#004F9F" d="M526.475,369.737c-0.751,0-1.401-0.19-1.96-0.562
		c-0.565-0.372-0.985-1.073-1.263-2.103l-27.227-77.455h-17.96l30.03,85.028c1.405,4.025,3.762,7.062,7.084,9.121
		c3.322,2.059,7.226,3.088,11.716,3.088c4.489,0,8.373-0.986,11.65-2.949c3.27-1.964,5.657-5.052,7.154-9.26l30.027-85.028h-17.962
		l-27.22,77.31c-0.47,1.124-0.981,1.876-1.543,2.248c-0.559,0.371-1.172,0.562-1.821,0.562H526.475z"/>
	<path clip-path="url(#SVGID_2_)" fill="#004F9F" d="M632.694,372.402l5.052,13.89h17.96l-30.027-84.328
		c-1.496-4.212-3.883-7.343-7.156-9.4c-3.275-2.055-7.158-3.084-11.647-3.084c-4.489,0-8.373,1.029-11.643,3.084
		c-3.277,2.058-5.664,5.188-7.161,9.4l-30.03,84.328h17.964l4.913-13.89H632.694z M607.157,306.453c0.654,0,1.263,0.209,1.822,0.632
		c0.561,0.425,1.072,1.193,1.547,2.317l16.274,46.021h-40.129l16.559-46.162c0.741-1.872,1.821-2.808,3.222-2.808H607.157z"/>
	<polygon clip-path="url(#SVGID_2_)" fill="#004F9F" points="688.397,306.596 710.847,306.596 710.847,289.618 647.568,289.618 
		647.568,306.596 671.419,306.596 671.419,386.292 688.397,386.292 	"/>
	<rect x="721.515" y="289.618" clip-path="url(#SVGID_2_)" fill="#004F9F" width="16.973" height="96.674"/>
	<path clip-path="url(#SVGID_2_)" fill="#004F9F" d="M795.099,289.618c-29.323,0-44.035,15.993-44.123,47.986v0.424
		c0,32.177,14.657,48.264,43.98,48.264h7.591c29.322,0,43.984-16.087,43.984-48.264v-0.424
		c-0.281-31.993-14.99-47.986-44.126-47.986H795.099z M806.734,306.596c7.554,0,13.247,2.521,17.076,7.559
		c3.825,5.04,5.741,13.021,5.741,23.942c0,20.814-7.559,31.217-22.68,31.217h-16.241c-15.121,0-22.676-10.402-22.676-31.217
		c0-10.921,1.887-18.902,5.672-23.942c3.772-5.037,9.489-7.559,17.143-7.559H806.734z"/>
	<path clip-path="url(#SVGID_2_)" fill="#004F9F" d="M956.115,289.618h-18.1v71.841c0,5.61-2.387,8.417-7.156,8.417
		c-1.593,0-2.808-0.488-3.65-1.475c-0.84-0.982-1.592-2.452-2.245-4.419l-19.504-59.634c-1.591-4.768-4.347-8.464-8.278-11.081
		c-3.927-2.62-8.372-3.932-13.329-3.932c-3.555,0-6.854,0.56-9.89,1.684c-3.045,1.124-5.684,2.715-7.935,4.77
		c-2.241,2.062-3.993,4.56-5.257,7.507c-1.263,2.949-1.894,6.198-1.894,9.753v73.243h18.099v-71.556
		c0-5.614,2.388-8.421,7.158-8.421c1.587,0,2.829,0.537,3.718,1.61c0.888,1.075,1.614,2.598,2.173,4.561l19.365,59.493
		c1.587,4.772,4.351,8.492,8.278,11.156c3.927,2.665,8.42,4.001,13.471,4.001c3.46,0,6.708-0.563,9.752-1.684
		c3.036-1.124,5.683-2.736,7.929-4.843c2.239-2.106,4.018-4.604,5.332-7.507c1.306-2.898,1.963-6.172,1.963-9.826V289.618z"/>
	<polygon clip-path="url(#SVGID_2_)" fill="#004F9F" points="1074.112,386.292 1091.091,386.292 1091.091,289.614 1074.112,289.614 
		1074.112,329.188 1029.213,329.188 1029.213,289.614 1012.234,289.614 1012.234,386.292 1029.213,386.292 1029.213,346.166 
		1074.112,346.166 	"/>
	<path clip-path="url(#SVGID_2_)" fill="#004F9F" d="M1186.222,289.618h-16.979v59.666c0,5.883-1.919,10.693-5.752,14.431
		c-3.841,3.738-9.544,5.6-17.12,5.6h-0.421c-7.576,0-13.493-1.861-17.748-5.6c-4.261-3.737-6.384-8.548-6.384-14.431v-59.666
		h-16.979v60.191c0,5.336,0.887,10.245,2.667,14.729c1.774,4.498,4.396,8.352,7.854,11.582c3.461,3.227,7.72,5.73,12.771,7.504
		c5.052,1.777,10.896,2.667,17.538,2.667c6.734,0,12.648-0.89,17.748-2.667c5.099-1.773,9.337-4.252,12.701-7.436
		c3.365-3.178,5.891-7.014,7.577-11.504c1.683-4.488,2.525-9.496,2.525-15.015V289.618z"/>
	<path clip-path="url(#SVGID_2_)" fill="#004F9F" d="M1200.113,289.618v96.674h48.352c5.621,0,10.355-0.816,14.197-2.459
		c3.841-1.632,6.979-3.782,9.417-6.449c2.438-2.665,4.193-5.727,5.271-9.193c1.081-3.457,1.62-6.964,1.62-10.521
		c0-3.926-0.85-7.696-2.548-11.295c-1.697-3.603-4.438-6.524-8.207-8.771c3.77-2.248,6.51-5.19,8.207-8.839
		c1.698-3.65,2.548-7.205,2.548-10.665c0-4.022-0.539-7.768-1.62-11.228c-1.077-3.459-2.833-6.474-5.271-9.051
		c-2.438-2.569-5.599-4.576-9.489-6.03c-3.887-1.452-8.595-2.174-14.125-2.174H1200.113z M1217.092,346.16h33.954
		c1.497,0,2.897,0.306,4.208,0.912c1.311,0.605,2.456,1.416,3.438,2.438c0.981,1.026,1.774,2.213,2.388,3.56
		c0.604,1.347,0.913,2.766,0.913,4.251c0,3.347-0.982,6.187-2.949,8.509c-1.964,2.324-4.676,3.485-8.136,3.485h-33.815V346.16z
		 M1217.092,306.596h33.954c1.497,0,2.897,0.307,4.208,0.912s2.456,1.424,3.438,2.452c0.981,1.033,1.774,2.228,2.388,3.577
		c0.604,1.361,0.913,2.789,0.913,4.278c0,3.182-1.029,5.876-3.088,8.073c-2.059,2.196-4.724,3.292-7.997,3.292h-33.815V306.596z"/>
	<path clip-path="url(#SVGID_2_)" fill="#004F9F" d="M33.81,194.533V26.703c0-16.877,14.41-26.797,42.094-26.702l30.953,0.062
		v13.453l-6.073-0.022c-27.089-0.092-32.625,5.076-32.625,26.775v152.107c0,17.743-15.537,31.177-36.553,32.888
		c21.016,1.741,36.553,15.158,36.553,32.912v157.578c0,21.68,5,26.833,32.625,26.754l6.073-0.02v13.402l-30.953,0.091
		c-27.684,0.121-42.094-9.803-42.094-26.73V256.045c0-13.875-7.795-23.4-21.073-28.149C8.331,226.141,4.46,225.71,0,225.264
		C19.942,224.425,33.81,212.286,33.81,194.533"/>
	<path clip-path="url(#SVGID_2_)" fill="#004F9F" d="M1383.514,256.086v170.511c0,16.901-14.409,26.817-42.096,26.727l-30.893-0.091
		v-13.42l6.016,0.018c27.143,0.069,32.683-5.099,32.683-26.76V258.207c0-17.73,15.468-31.161,36.546-32.892
		c-21.078-1.748-36.546-15.168-36.546-32.921V40.269c0-21.654-5.004-26.852-32.683-26.735l-6.016,0.022V0.14l30.893-0.125
		c27.687-0.073,42.096,9.851,42.096,26.739v167.783c0,13.869,7.796,23.417,21.07,28.194c4.464,1.731,8.273,2.165,12.738,2.584
		C1397.379,226.181,1383.514,238.333,1383.514,256.086"/>
	<path clip-path="url(#SVGID_2_)" fill="#004F9F" d="M185.257,237.877c-16.485,0-29.697-6.102-39.471-18.037
		c-8.807-11.109-13.212-24.523-13.212-40.6c0-6.73,0.897-13.431,2.62-19.855c2.088-6.431,4.701-12.292,8.57-17.5
		c-3.57-5.271-6.482-11.136-8.209-17.837c-2.084-6.453-2.981-13.183-2.981-19.847c0-15.771,4.405-29.199,13.212-40.338
		c9.774-12.234,22.986-18.329,39.471-18.3l110.674,0.146v40.776l-103.582-0.051c-4.763,0-8.277,1.723-11.197,5.204
		c-2.62,3.515-3.865,7.621-3.865,12.264c0,4.7,1.245,8.752,3.865,11.967c2.621,3.508,6.434,4.972,11.197,4.972h103.582v40.515v1.182
		l-109.479,0.03c-2.979,1.463-5.3,3.548-6.789,6.73c-1.723,2.883-2.376,6.161-2.376,9.942c0,4.672,1.245,8.722,3.865,11.934
		c2.621,3.216,6.434,4.972,11.197,4.972l103.582-0.117v41.695L185.257,237.877z"/>
	<path clip-path="url(#SVGID_2_)" fill="#004F9F" d="M384.094,162.539c-10.537,0-18.158,3.449-22.504,10.749
		c-3.271,4.672-4.76,10.745-4.76,18.037v4.077c0.358,0.891,0.358,1.727,0.595,2.351v41.016l-42.45,0.062v-13.424v-21.822v-28.833
		c0-15.117,3.814-27.654,11.734-37.242c8.807-11.107,21.903-16.614,38.99-16.614h52.571c4.935,0,8.749-1.752,11.369-5.202
		c2.617-3.185,3.807-6.966,3.807-11.674c0-4.615-1.19-8.687-3.807-11.87c-2.62-3.788-6.434-5.541-11.369-5.541l-103.295-0.123
		V45.744l110.613,0.142c16.311,0.032,29.169,6.139,38.758,18.099c8.809,11.018,13.153,24.41,13.153,40.4
		c0,15.679-4.344,29.022-12.855,40.092c-9.646,11.91-22.745,18.041-39.056,18.041L384.094,162.539z"/>
	<polygon clip-path="url(#SVGID_2_)" fill="#004F9F" points="494.405,238.593 494.405,45.981 537.208,46.068 537.208,238.505 	"/>
	<polygon clip-path="url(#SVGID_2_)" fill="#004F9F" points="634.241,86.814 634.241,238.352 592.098,238.411 592.098,86.756 
		548.819,86.727 548.819,46.105 677.704,46.244 677.704,86.848 	"/>
	<path clip-path="url(#SVGID_2_)" fill="#004F9F" d="M742.779,237.039c-16.137,0.037-29.118-6.029-38.704-17.884
		c-8.693-10.982-13.037-24.315-13.037-40.206c0-6.701,0.895-13.34,2.618-19.709c2.025-6.368,4.646-12.176,8.398-17.387
		c-3.511-5.242-6.373-11.008-8.161-17.625c-1.96-6.424-2.855-13.066-2.855-19.727c0-15.632,4.344-28.965,13.037-39.979
		c9.585-12.114,22.567-18.18,38.704-18.18l108.876,0.175v40.45l-101.854-0.058c-4.643-0.029-8.037,1.694-11.018,5.147
		c-2.618,3.514-3.808,7.533-3.808,12.175c0,4.613,1.189,8.657,3.808,11.88c2.564,3.453,6.375,4.873,11.018,4.873l101.854,0.036
		v40.184v1.193h-107.69c-2.858,1.457-5.182,3.457-6.61,6.665c-1.723,2.916-2.379,6.044-2.379,9.825
		c0,4.609,1.189,8.719,3.808,11.844c2.564,3.214,6.375,4.97,11.018,4.938l101.854-0.084v41.307L742.779,237.039z"/>
	<path clip-path="url(#SVGID_2_)" fill="#004F9F" d="M936.549,237.908c-22.387,0.062-40.009-9.76-52.922-29.32
		c-11.788-17.65-17.504-38.997-17.504-64.713c0-26.279,5.716-48.542,17.796-67.003c12.979-20.175,30.541-30.271,52.63-30.239
		l92.98,0.147v40.337l-86.075-0.091c-10.358,0-18.396,5.51-24.169,16.46c-5.419,10.088-8.044,22.21-8.044,36.914
		c0,14.993,2.625,27.709,8.044,38.425c6.069,11.789,14.103,17.566,24.169,17.566l86.075-0.098v41.498L936.549,237.908z"/>
	<polygon clip-path="url(#SVGID_2_)" fill="#004F9F" points="1164.55,237.579 1164.55,162.24 1088.824,162.24 1088.824,237.696 
		1046.742,237.725 1046.742,46.813 1088.824,46.872 1088.824,121.107 1164.55,121.17 1164.55,46.987 1206.522,47.024 
		1206.522,237.52 	"/>
	<path clip-path="url(#SVGID_2_)" fill="#004F9F" d="M1261.115,187.963c13.687,0,24.169,9.856,24.169,23.06
		c0,13.877-10.482,25.782-23.512,25.782c-12.445,0.032-22.33-11.847-22.33-25.056
		C1239.442,198.53,1248.611,187.963,1261.115,187.963"/>
</g>
</svg>
