<?xml version="1.0" encoding="utf-8"?>
<!-- Generator: Adobe Illustrator 16.0.0, SVG Export Plug-In . SVG Version: 6.00 Build 0)  -->
<!DOCTYPE svg PUBLIC "-//W3C//DTD SVG 1.1//EN" "http://www.w3.org/Graphics/SVG/1.1/DTD/svg11.dtd">
<svg version="1.1" id="Layer_1" xmlns="http://www.w3.org/2000/svg" xmlns:xlink="http://www.w3.org/1999/xlink" x="0px" y="0px"
	 width="808.824px" height="350.268px" viewBox="0 0 808.824 350.268" enable-background="new 0 0 808.824 350.268"
	 xml:space="preserve">
<g>
	<defs>
		<rect id="SVGID_1_" width="808.824" height="350.268"/>
	</defs>
	<clipPath id="SVGID_2_">
		<use xlink:href="#SVGID_1_"  overflow="visible"/>
	</clipPath>
	<path clip-path="url(#SVGID_2_)" fill="#E72887" d="M25.976,149.436V20.514C25.976,7.553,37.043-0.07,58.308,0l23.778,0.053v10.333
		l-4.665-0.02c-20.808-0.071-25.063,3.902-25.063,20.573v116.837c0,13.631-11.933,23.95-28.076,25.265
		c16.143,1.334,28.076,11.646,28.076,25.281v121.041c0,16.655,3.841,20.611,25.063,20.554l4.665-0.021v10.299l-23.778,0.072
		c-21.265,0.092-32.332-7.531-32.332-20.532V196.684c0-10.656-5.992-17.973-16.19-21.623c-3.384-1.349-6.358-1.68-9.786-2.02
		C15.319,172.397,25.976,163.073,25.976,149.436"/>
	<path clip-path="url(#SVGID_2_)" fill="#E72887" d="M782.854,197.728v130.978c0,12.983-11.067,20.602-32.336,20.534l-23.729-0.076
		v-10.31l4.621,0.02c20.85,0.052,25.105-3.918,25.105-20.559V199.352c0-13.615,11.881-23.931,28.072-25.263
		c-16.191-1.34-28.072-11.65-28.072-25.287V31.95c0-16.637-3.844-20.63-25.105-20.538l-4.621,0.017V1.118l23.729-0.09
		c21.269-0.056,32.336,7.565,32.336,20.536v128.883c0,10.652,5.988,17.99,16.186,21.656c3.429,1.335,6.355,1.661,9.785,1.986
		C793.505,174.755,782.854,184.091,782.854,197.728"/>
	<polygon clip-path="url(#SVGID_2_)" fill="#E72887" points="260.826,296.407 267.672,296.407 247.376,344.616 245.818,344.616 
		225.132,296.407 232.049,296.407 246.486,330.116 	"/>
	<rect x="271.59" y="296.406" clip-path="url(#SVGID_2_)" fill="#E72887" width="6.872" height="48.003"/>
	<path clip-path="url(#SVGID_2_)" fill="#E72887" d="M287.983,344.41v-48.003h12.025c4.858,0,8.71,1.203,11.564,3.607
		c2.852,2.406,4.277,5.658,4.277,9.76c0,2.794-0.698,5.211-2.096,7.249c-1.398,2.041-3.402,3.563-6.012,4.571
		c1.533,1.008,3.034,2.383,4.5,4.123c1.467,1.741,3.529,4.777,6.185,9.105c1.672,2.726,3.012,4.776,4.021,6.15l2.543,3.437h-8.178
		l-2.093-3.162c-0.069-0.116-0.208-0.312-0.413-0.585l-1.338-1.891l-2.128-3.507l-2.298-3.747c-1.419-1.972-2.72-3.542-3.9-4.708
		c-1.182-1.166-2.248-2.006-3.199-2.52c-0.953-0.517-2.551-0.771-4.8-0.771h-1.788v20.891H287.983z M296.917,302.25h-2.062v15.152
		h2.612c3.481,0,5.869-0.297,7.162-0.895c1.296-0.595,2.304-1.493,3.025-2.696c0.722-1.204,1.083-2.573,1.083-4.104
		c0-1.515-0.401-2.881-1.204-4.108c-0.8-1.224-1.93-2.09-3.383-2.593C302.694,302.5,300.285,302.25,296.917,302.25"/>
	<polygon clip-path="url(#SVGID_2_)" fill="#E72887" points="318.524,296.338 358.622,296.338 358.622,302.455 341.889,302.455 
		341.889,344.41 334.98,344.41 334.98,302.455 318.524,302.455 	"/>
	<path clip-path="url(#SVGID_2_)" fill="#E72887" d="M397.107,296.407h6.906v27.25c0,3.688-0.268,6.472-0.808,8.349
		c-0.537,1.877-1.201,3.44-1.991,4.688c-0.792,1.251-1.759,2.367-2.904,3.353c-3.802,3.276-8.773,4.913-14.914,4.913
		c-6.253,0-11.269-1.627-15.05-4.878c-1.145-1.009-2.112-2.137-2.904-3.388c-0.79-1.248-1.443-2.776-1.957-4.586
		c-0.516-1.809-0.774-4.649-0.774-8.521v-27.181h6.907v27.25c0,4.513,0.516,7.65,1.545,9.414c1.033,1.765,2.602,3.18,4.708,4.242
		c2.107,1.067,4.592,1.6,7.457,1.6c4.076,0,7.399-1.067,9.966-3.197c1.351-1.146,2.322-2.496,2.92-4.055
		c0.595-1.557,0.893-4.227,0.893-8.004V296.407z"/>
	<path clip-path="url(#SVGID_2_)" fill="#E72887" d="M425.762,296.132h4.829l21.525,48.277h-7.035l-6.399-14.227h-20.479
		l-5.998,14.227h-7.062L425.762,296.132z M435.86,324.066l-7.747-17.385l-7.181,17.385H435.86z"/>
	<polygon clip-path="url(#SVGID_2_)" fill="#E72887" points="456.034,296.407 462.906,296.407 462.906,338.157 484.518,338.157 
		484.518,344.41 456.034,344.41 	"/>
	<rect x="489.194" y="296.406" clip-path="url(#SVGID_2_)" fill="#E72887" width="6.873" height="48.003"/>
	<polygon clip-path="url(#SVGID_2_)" fill="#E72887" points="501.294,296.338 541.392,296.338 541.392,302.455 524.659,302.455 
		524.659,344.41 517.752,344.41 517.752,302.455 501.294,302.455 	"/>
	<polygon clip-path="url(#SVGID_2_)" fill="#E72887" points="575.35,296.407 583.691,296.407 565.961,319.016 565.961,344.41 
		558.917,344.41 558.917,319.016 541.186,296.407 549.482,296.407 562.33,312.956 	"/>
	<path clip-path="url(#SVGID_2_)" fill="#E72887" d="M442.057,5.308h-37.197h-0.004h-37.198v18.891H349.35V42.51h-18.888V5.308
		h-37.201V42.51h-37.198v37.201h37.201V42.51h37.195v37.201v37.202h-18.307v18.31h18.31v-18.31h37.195v37.201v18.892H349.35v18.31
		h-18.891v37.202h37.198v37.201h37.202v-37.201h37.197v37.201c71.91,0,130.206-58.295,130.206-130.205
		C572.263,63.603,513.967,5.308,442.057,5.308 M442.057,79.711h-37.197V42.51h37.197V79.711z M367.661,79.711h37.194v37.202h-37.194
		V79.711z M367.661,191.316h37.194v37.202h-37.194V191.316z M442.057,191.316h-37.197v-37.202h37.197V191.316z"/>
	<rect x="236.561" y="24.447" clip-path="url(#SVGID_2_)" fill="#E72887" width="18.311" height="18.31"/>
</g>
</svg>
